/* XPM */
static char *_3b3e79e946b463ca669a63805da55834KBLgr8lR7azRFuu[] = {
/* columns rows colors chars-per-pixel */
"64 64 214 2 ",
"   c None",
".  c #1D1D1F",
"X  c #1E1D1F",
"o  c #201F1F",
"O  c #1E1E20",
"+  c #201E23",
"@  c #231E27",
"#  c #241F28",
"$  c #232025",
"%  c #222225",
"&  c #232325",
"*  c #282322",
"=  c #292520",
"-  c #282421",
";  c #2A2520",
":  c #2C2620",
">  c #252528",
",  c #28282B",
"<  c #2C2C2F",
"1  c #322A22",
"2  c #362C22",
"3  c #382B22",
"4  c #382E21",
"5  c #3A2E23",
"6  c #3C3022",
"7  c #2D2433",
"8  c #2C2034",
"9  c #2E2137",
"0  c #2D2434",
"q  c #2F2537",
"w  c #2E2E31",
"e  c #30213A",
"r  c #31223B",
"t  c #36363A",
"y  c #38383B",
"u  c #39393D",
"i  c #472A26",
"p  c #473623",
"a  c #483823",
"s  c #4C3A23",
"d  c #4E3B23",
"f  c #4E3B24",
"g  c #513D24",
"h  c #70362C",
"j  c #79392E",
"k  c #7F3B2F",
"l  c #5F4525",
"z  c #654925",
"x  c #6A4C26",
"c  c #7F4E2A",
"v  c #705026",
"b  c #755327",
"n  c #785527",
"m  c #795527",
"M  c #7F5329",
"N  c #7F5529",
"B  c #7F5928",
"V  c #3C254B",
"C  c #3C244C",
"Z  c #3F254F",
"A  c #3D3D40",
"S  c #3D3C41",
"D  c #3F3F43",
"F  c #402C4D",
"G  c #422D4F",
"H  c #432655",
"J  c #412851",
"K  c #452F53",
"L  c #472D57",
"P  c #48275D",
"I  c #4D2863",
"U  c #512C69",
"Y  c #503065",
"T  c #533566",
"R  c #553469",
"E  c #553668",
"W  c #57376B",
"Q  c #56316D",
"!  c #572D71",
"~  c #5B2B78",
"^  c #5E3379",
"/  c #414144",
"(  c #424146",
")  c #424147",
"_  c #434347",
"`  c #454548",
"'  c #454449",
"]  c #47474C",
"[  c #49494C",
"{  c #4A494E",
"}  c #4C4C4F",
"|  c #4C4B50",
" . c #4F4E53",
".. c #504F55",
"X. c #535258",
"o. c #57565A",
"O. c #56565B",
"+. c #59575F",
"@. c #5B5A62",
"#. c #5D5D62",
"$. c #605F63",
"%. c #626167",
"&. c #636269",
"*. c #63626A",
"=. c #64626A",
"-. c #666569",
";. c #69686C",
":. c #68686E",
">. c #6D6D71",
",. c #76767A",
"<. c #77757F",
"1. c #7B7A7F",
"2. c #8C0A22",
"3. c #A70523",
"4. c #8E3F31",
"5. c #A3322F",
"6. c #C33732",
"7. c #8E4D2E",
"8. c #8E562C",
"9. c #865D28",
"0. c #8F4031",
"q. c #A34634",
"w. c #B14A37",
"e. c #B54B37",
"r. c #8E6229",
"t. c #96672A",
"y. c #9A692A",
"u. c #9C6A2A",
"i. c #A36F2B",
"p. c #AA732B",
"a. c #AB742C",
"s. c #AC742C",
"d. c #AF762C",
"f. c #B1772C",
"g. c #B4792C",
"h. c #B87C2D",
"j. c #BC7E2D",
"k. c #D4553C",
"l. c #DC573D",
"z. c #DC7B35",
"x. c #E37F36",
"c. c #FF793E",
"v. c #FF7C3D",
"b. c #845440",
"n. c #C67755",
"m. c #FB6142",
"M. c #FF6243",
"N. c #BF802D",
"B. c #C3822E",
"V. c #C5842E",
"C. c #C7852E",
"Z. c #C8852E",
"A. c #CD892F",
"S. c #D08A2F",
"D. c #D18B2F",
"F. c #D38C2F",
"G. c #D48C2F",
"H. c #D58E2F",
"J. c #D68E2F",
"K. c #DA9030",
"L. c #DC9130",
"P. c #DF9430",
"I. c #FF8D39",
"U. c #E49631",
"Y. c #E69831",
"T. c #E79831",
"R. c #EA9A31",
"E. c #EC9C31",
"W. c #F09E32",
"Q. c #F29F32",
"!. c #FF9338",
"~. c #F3A032",
"^. c #F4A132",
"/. c #F9A332",
"(. c #FAA433",
"). c #FCA533",
"_. c #FDA633",
"`. c #FFA733",
"'. c #FFAC3E",
"]. c #FFAD40",
"[. c #FFB555",
"{. c #FFB859",
"}. c #642E85",
"|. c #683E81",
" X c #6D4087",
".X c #784596",
"XX c #7A4699",
"oX c #787680",
"OX c #863BB3",
"+X c #8543AC",
"@X c #8A4DAE",
"#X c #8B40B8",
"$X c #9045BC",
"%X c #924EBA",
"&X c #9348BF",
"*X c #9653BD",
"=X c #954AC0",
"-X c #9A54C2",
";X c #9B55C3",
":X c #9D52C8",
">X c #9F54CA",
",X c #A258CD",
"<X c #83818B",
"1X c #8C8B90",
"2X c #98979F",
"3X c #ACABB1",
"4X c #FFD298",
"5X c #FFD9A6",
"6X c #FFDCAE",
"7X c #FFE4C0",
"8X c #FFE6C5",
"9X c #FFEFD9",
"0X c #FFF4E6",
"qX c white",
/* pixels */
"                    . . . . . . . . . . . . . . . . . . . . . . . . . . . . . . . . . . . . . . . . . . . .                     ",
"                    . . , , , , , < w w w w w w w w w w w w w w w w w w w w w w w w w w w w w w w w w w O .                     ",
"                    . % oXoXoXoX<.2X3X3X3X3X3X3X3X3X3X3X3X3X3X3X3X3X3X3X3X3X3X3X3X3X3X3X3X3X3X3X3X3X3X3X> .                     ",
"                    . % oX=.t t t D ` ` ` ` ` ` ` ` ` ` ` ` ` ' ` ` ` ` ` ` ` ` ` ` ` ` ` ` ` ` ` ` 1X3X> .                     ",
"                    . % oX@.. . . . . . . . . . . . . . . . . . . . . . . . . . . . . . . . . . . . =.<X& .                     ",
"                    . % oX@.. h l.z.L.L.L.L.L.L.L.L.K.K.L.L.L.L.L.L.L.L.L.L.L.L.L.L.L.L.L.L.L.L.v . @.oX% .                     ",
"                    . % oX@.. k M.I.`.`.`.`.`.`.`.`.`.`.D.`.`.`.`.`.H.^.`.`.`.`.`.`.`.`.`.8X9X`.B . @.oX% .                     ",
"                    . % oX@.. k M.I.`.`.`.`.`.`.`.`.p.2 . 4 g.`.H.s . * 9.`.`.`.`.`.`.`.`.0XqX`.B . @.<.% .                     ",
"                    . % oX<.n.m.M.I.`.`.`.`.`.`.`.^.= @ J + 1 (.l . V 8 . D.`.`.`.`.`.`.`.'.'.`.B . @.oX% .                     ",
"                    . % *.X.b.q.e.I.`.`.`.`.`.`.`.a.. I &XW . i.. r #XXX. n `.`.`.`.`.`.`.6X7X`.B . @.oX% .                     ",
"                    . % ' . . . i c.!.`.`.`.`.`.H.9.. 8 ^ q . 9.. + ! G . z V.`.`.`.`.`.`.0XqX`.B . @.oX% .                     ",
"                    . % ' . } . i M.v.`.`.`.`.`.n . . . . . . . . . . . . . p `.`.`.`.`.`.[.{.`.B . @.oX% .                     ",
"                    . % ' . ,.. i M.v.`.`.`.`.`.n . V W W W K . r Y W W T . p `.`.`.`.`.`.4X5X`.B . @.oX% .                     ",
"                    . % ' . ,.. i M.v.`.`.`.`.`.n . }.:X,X,X.X. P &X,X,X-X. p `.`.`.`.`.`.0XqX`.B . @.oX% .                     ",
"                    . % ' . ,.. i M.v.`.`.`.`.`.b . }.:X,X,X.X. P &X,X,X-X. p `.`.`.`.`.`.0XqX`.B . @.oX% .                     ",
"                    . % ' . ,.. i M.v.`.`.`.`.`.n . ~ %X,X*X X. H +X,X-X@X. p `.`.`.`.`.`.0XqX`.B . @.oX% .                     ",
"                    . % ' . } . i M.v.`.`.`.`.`.n . . L >XG . . O $ :X|.. . p `.`.`.`.`.`.0XqX`.B . @.oX% .                     ",
"                    . % ' . . . i c.!.`.`.`.`.`.y.a . Z $XG . s o @ OX|.. 6 b `.`.`.`.`.`.0XqX`.B . @.oX% .                     ",
"                    . % *.X.b.q.e.I.`.`.`.`.`.`.`.A.. Z $XG . L.; @ OX|.. u.`.`.`.`.`.`.`.0XqX`.B . @.oX% .                     ",
"                    . % oX<.n.m.M.I.`.`.`.`.`.`.`.A.. Z $XG . L.; @ OX|.. u.`.`.`.`.`.`.`.4X5X`.B . @.oX% .                     ",
"                    . % oX@.. k M.I.`.`.`.`.`.`.`.A.. Z $XG . L.; @ OX|.. u.`.`.`.`.`.`.`.`.`.`.B . @.oX% .                     ",
"                    . % oX@.. k M.I.`.`.`.`.`.`.`.A.. 9 Q q . L.; + U G . u.`.`.`.`.`.`.`.`.`.`.B . @.oX% .                     ",
"                    . % oX@.. k M.I.`.`.`.`.`.`.`.A.. . . . . L.; . . . . y.`.t.9.9.9.9.9.9.9.B.B . @.oX% .                     ",
"                    . % oX@.. k M.I.`.`.`.`.`.`.`.E.p.p.p.p.p.Q.d.p.p.p.a.K.`.2 . . . . . . . 7.N . @.oX% .                     ",
"                    . % oX@.. k M.I.`.`.`.`.`.`.`.`.`.`.`.`.`.`.`.`.`.`.`.`.`.4 . 2.5.w.w.j . 4.c . @.oX% .                     ",
"                    . % oX@.. k M.I.`.`.`.`.`.`.`.`.`.`.`.`.`.`.`.`.`.`.`.`.`.4 . 3.6.k.k.0.. 4.c . @.oX% .                     ",
"                    . % oX@.. k M.3 g `.`.`.`.`.`.`.`.`.`.`.`.`.`.`.`.`.`.`.`.4 . . . . . . . 0.c . @.oX% .                     ",
"                    . % oX@.. k M.. 4 `.`.`.`.`.`.`.`.`.`.`.`.`.`.`.`.`.`.`.`.4 . u ( [ [ y . 0.c . @.oX% .                     ",
"                    . % oX@.. k M.. 4 `.`.`.`.`.`.`.`.`.`.`.`.`.`.`.`.`.A.u.u.: .  .*.>.>.;.. 4.c . @.oX% .                     ",
"                    . % oX@.. k M.. 4 `.`.`.`.`.`.`.`.`.`.`.`.`.`.`.`.`.r.. . . . . . . . | . 4.c . @.oX% .                     ",
"                    . % oX@.. k M.. 4 `.`.`.`.`.`.`.`.`.`.`.`.`.`.`.`.`.r.. D  .#.>.>.t . ( . 4.c . @.oX% .                     ",
"                    . % oX@.. k M.. 4 `.`.`.`.`.`.`.`.`.`.`.`.`.`.`.`.`.r.O ( +.;.1.1.D . ( . 4.c . @.oX% .                     ",
"                    . % oX@.. k M.. 4 `.`.`.`.`.`.`.`.`.`.`.`.`.`.`.`.`.r.. . . . . . . . [ . 4.c . @.<.% .                     ",
"                    . % oX@.. k M.O 4 `.`.`.`.`.`.`.`.`.`.`.`.`.`.`.`.`.B.9.9.* . [ o.$.$.-.. 4.c . @.oX% .                     ",
"                    . % oX@.. k M.. 4 `.`.`.`.`.`.`.`.`.`.`.`.`.`.`.`.`.`.`.`.2 . <.2X3X3X,.. 4.c . @.oX% .                     ",
"                    . % oX@.. k M.. 4 `.`.`.`.`.`.`.`.`.`.`.`.`.`.`.`.`.`.`.`.4 . (  .o.o.( . 0.c . @.oX% .                     ",
"                    . % oX@.. k M.. 2 `.`.`.`.`.`.`.`.`.`.`.`.`.`.`.`.`.`.`.`.4 . . . . . . . 8.N . @.oX% .                     ",
"                    . % oX@.. k M.. 4 `.`.`.`.`.`.`.`.`.`.`.`.`.`.`.`.`.`.`.`.V.N.N.N.N.N.N.N.P.B . @.oX% .                     ",
"                    . % oX@.. k M.. 4 `.`.`.`.`.`.`.`.`.`.`.`.`.`.`.`.`.`.`.`.`.`.`.`.`.`.`.`.`.B . @.oX% .                     ",
"                    . % oX@.. k M.. 4 `.`.`.`.`.`.`.`.`.`.`.`.`.`.`.`.`.`.`.`.`.`.`.`.`.`.`.`.`.B . @.oX% .                     ",
"                    . % oX@.. k M.K.T.`.`.`.`.`.`.`.`.`.`.`.`.`.`.`.`.`.`.`.`.`.`.`.`.`.`.`.`.`.B . @.oX% .                     ",
"                    . % oX@.. k M.I.`.`.`.`.`.`.`.`.`.`.`.`.`.`.`.`.`.`.`.`.`.`.`.`.`.`.`.`.`.`.B . @.oX% .                     ",
"                    . % oX@.. k M.I.!.`.`.`.`.`.`.`.`.`.`.`.`.`.`.`.`.`.`.`.`.`.`.`.`.`.`.`.`.`.B . @.oX% .                     ",
"                    . % oX@.. k M.I.`.`.`.`.`.`.`.`.`.`.`.`.`.`.`.`.`.`.`.`.`.`.`.`.`.`.`.`.`.`.B . @.oX% .                     ",
"                    . % oXoXn.m.M.I.`.`.`.`.`.`.`.`.`.`.`.`.`.`.`.`.`.`.`.`.`.`.`.`.`.`.`.`.`.`.B . @.oX% .                     ",
"                    . % *.X.b.q.e.!.`.`.`.`.`.`.`.`.`.`.`.`.`.`.`.`.`.`.`.`.`.`.`.`.`.`.`.`.`.`.B . @.oX% .                     ",
"                    . % ' . O O i c.!.`.`.`.`.`.`.`.`.`.`.`.`.`.`.`.`.`.`.`.`.`.`.`.`.`.`.`.`.`.B . @.oX% .                     ",
"                    . % ' . [ O i M.v.`.`.`.`.`.`.`.`.`.`.`.`.`.`.`.`.`.`.`.`.`.`.`.`.`.`.`.`.`.B . @.oX% .                     ",
"                    . % ' . ,.. i M.v.`.`.`.`.`.`.`.`.`.`.`.`.`.`.`.`.`.`.`.`.`.`.`.`.`.`.`.`.`.B . @.oX% .                     ",
"                    . % ' . ,.. i M.v.`.`.`.`.`.`.`.`.`.`.`.`.`.`.`.`.`.`.`.`.`.`.`.`.`.`.`.`.`.B . @.oX% .                     ",
"                    . % ' . ,.. i M.v.`.`.`.`.`.`.`.`.`.`.`.`.`.`.`.`.`.`.`.`.`.`.`.`.`.`.`.`.`.B . @.oX% .                     ",
"                    . % ' . ,.. i M.v.`.`.`.`.`.`.`.`.`.`.`.`.`.`.`.`.`.`.`.`.`.`.`.`.`.`.`.`.`.B . @.oX% .                     ",
"                    . % ' . } . i M.v.`.`.`.`.`.`.`.`.`.`.`.`.`.`.`.`.`.`.`.`.`.`.`.`.`.`.`.`.`.B . @.oX% .                     ",
"                    . % ' . . . i c.!.`.`.`.`.`.`.`.`.`.`.`.`.`.`.`.`.`.`.`.`.`.`.`.`.`.`.`.`.`.B . @.oX% .                     ",
"                    . % *.X.b.q.e.I.`._.`.`.`.`.`.`.`.`.`.`.`.`.`.`.`.`.`.`.`.`.`.`.`.`.`.`.`.`.B . @.oX% .                     ",
"                    . % oX<.n.m.M.I.u.B Q.p.9.U.j.B G.`.`.`.`.`.`.`.`.`.`.`.`.`.`.`.`.`.`.`.`.`.B . @.oX% .                     ",
"                    . % oX@.. k M.I.d . R.x . A.9.. f.`.`.`.`.`.`.`.`.`.`.`.`.`.`.`.`.`.`.`.`.`.9.. @.oX% .                     ",
"                    . % oX@.. k M.I.Z.h.(.D.g.Q.K.h.T.`.`.`.`.`.`.`.`.`.`.`.`.`.`.`.`.`.`.`.`.`.B . @.oX% .                     ",
"                    . % oX@.. h l.z.K.K.L.L.L.L.L.L.L.L.L.L.L.L.L.L.L.L.L.L.L.L.L.L.L.L.L.L.L.L.x . @.<.% .                     ",
"                    . % oX@.. . . . . . . . . . . . . . . . . . . . . . . . . . . . . . . . . . . . *.<X& .                     ",
"                    . % oX=.t t t D ` ` ` ` ` ` ` ` ` ` ` ` ` ` ` ` ` ` ` ` ` ` ` ` ` ` ` ` ` ` ' ` 1X3X> .                     ",
"                    . % oXoXoXoX1.2X3X3X3X3X3X3X3X3X3X3X3X3X3X3X3X3X3X3X3X3X3X3X3X3X3X3X3X3X3X3X3X3X3X3X> .                     ",
"                    . . , , , , , < w w w w w w w w w w w w w w w w w w w w w w w w w w w w w w w w w w O .                     ",
"                    . . . . . . . . . . . . . . . . . . . . . . . . . . . . . . . . . . . . . . . . . . . .                     "
};
