/* XPM */
static char *_f45efee2e854cce9d87770d41c0f131tgSOHUI02I0ef3MN[] = {
/* columns rows colors chars-per-pixel */
"64 64 143 2 ",
"   c #353327",
".  c #37372F",
"X  c #39342E",
"o  c #3A382B",
"O  c #363432",
"+  c #3A3633",
"@  c #3D3935",
"#  c #3A3638",
"$  c #3E3A39",
"%  c #40392F",
"&  c #433D35",
"*  c #413C3A",
"=  c #3F4032",
"-  c #444133",
";  c #494337",
":  c #46423A",
">  c #4B463A",
",  c #4B493B",
"<  c #514B3D",
"1  c #4E4943",
"2  c #534F45",
"3  c #544F4A",
"4  c #565346",
"5  c #5A5546",
"6  c #5B5A47",
"7  c #56534B",
"8  c #5A564B",
"9  c #5D5A4C",
"0  c #565550",
"q  c #595650",
"w  c #5D5B51",
"e  c #625D4D",
"r  c #625E52",
"t  c #64604E",
"y  c #69624E",
"u  c #656152",
"i  c #6C6655",
"p  c #666853",
"a  c #6E6956",
"s  c #676358",
"d  c #6C6659",
"f  c #6E6959",
"g  c #706756",
"h  c #716A57",
"j  c #706758",
"k  c #746B5A",
"l  c #716C58",
"z  c #716C59",
"x  c #736C59",
"c  c #736E58",
"v  c #736C5A",
"b  c #726D5A",
"n  c #736E5A",
"m  c #736E5B",
"M  c #746E58",
"N  c #746D5A",
"B  c #756C5B",
"V  c #746D5B",
"C  c #756E5B",
"Z  c #766E5B",
"A  c #72685C",
"S  c #73695D",
"D  c #716B5D",
"F  c #726A5D",
"G  c #716B5F",
"H  c #746B5C",
"J  c #726C5C",
"K  c #736C5C",
"L  c #736D5D",
"P  c #746D5D",
"I  c #756E5C",
"U  c #746F5C",
"Y  c #766F5C",
"T  c #766F5D",
"R  c #746E5E",
"E  c #756F5F",
"W  c #766F5F",
"Q  c #726B59",
"!  c #786F5E",
"~  c #77705D",
"^  c #76715D",
"/  c #77725F",
"(  c #76705D",
")  c #78715F",
"_  c #79715F",
"`  c #746E60",
"'  c #746E60",
"]  c #767060",
"[  c #777161",
"{  c #767060",
"}  c #7A7363",
"|  c #797365",
" . c #797262",
".. c #7C7B6B",
"X. c #7C7970",
"o. c #7D7A71",
"O. c #7D7E70",
"+. c #847D6B",
"@. c #837D71",
"#. c #837F74",
"$. c #7F8072",
"%. c #84836F",
"&. c #83856F",
"*. c #85816E",
"=. c #838270",
"-. c #848371",
";. c #868370",
":. c #868372",
">. c #878471",
",. c #868571",
"<. c #858472",
"1. c #878473",
"2. c #878672",
"3. c #838175",
"4. c #868276",
"5. c #868475",
"6. c #868573",
"7. c #898373",
"8. c #8B8670",
"9. c #888572",
"0. c #898772",
"q. c #898673",
"w. c #888773",
"e. c #8B8672",
"r. c #8A8474",
"t. c #898675",
"y. c #8A8774",
"u. c #888677",
"i. c #888774",
"p. c #8A8873",
"a. c #898874",
"s. c #8A8975",
"d. c #898876",
"f. c #8F8A77",
"g. c #8B8976",
"h. c #898778",
"j. c #898779",
"k. c #878878",
"l. c #8B897A",
"z. c #8C8978",
"x. c #8C8B79",
"c. c #8D8C78",
"v. c #8D8C7B",
/* pixels */
"p.0.0.:.r.f.r.8...>   9 5.z.5.d.d.%.z.:.- 6 :.z.y.y.y.f r 3.3.: =.5.d.0.:.y.y.:.o.:   r y.h.+.u.i.=.x.=.- 6 %.c.&.d.,.f u 3.3.@ ",
"0.t 6 u p a c M s 8 4 9 u 9 6 u 8 e 6 e 4 t r 6 u 6 9 9 7 u u 5 6 9 e 9 6 e i e r e 8 9 r e e e 6 r 9 9 5 r e 9 p t 6 6 4 r 9 @ ",
"y.5 e i y b b a i Q D f r e e 5 5 i f f b b i f p s r 9 6 7 4 9 8 9 w r r i f i p j D Q u e 6 e 5 i b a T D i h t p t 9 9 6 7 $ ",
"z.6 i ] b _ h h T h Q Q ! T Q i f i H Q Q f Q e w f f s u w w r 9 r u s a D R Q ~ g i T _ Q f j f i R Q Q j Q e t f R u r w 9 @ ",
"7.i i h b Q i k M h g h k Q Q Q  .i T Q Q Q Q e 9 u f f u 8 8 8 i Q D b b N c c c c h h Q b Q Q  .i T Q D Q H 8 8 6 i a r 5 0 @ ",
"5 i ] Q Q T k ] c N T Q h Q Q Q h Q T f k i h i 6 9 i D a f T D R N h h h g h g h N N h g Q H Q h h T h Q i h i e 6 f ( i 9 w # ",
"; s ' i i N ~ i h h Q a Q T Q Q N Q h i T T T N b N T N Q Q T h Q Q Q Q Q j M M Q a i Q N Q h N k Q i i T N T T j Q _ a b w q O ",
"@.| i Q ~ i ' Q Q h Q N k i Q Q Q g T T g i N h N Q i j N h i Z Q Q H H H k j k Q k Q h Q Q Q Q Q Q T T i Q k h D T b y ~ e 4 $ ",
"f.p b Q T g T Q Q Q Q Q Q Q Q Q Q Q Q Q Q Q Q Q Q Q k h Q Q Q Q Q Q Q Q Q Q Q Q Q Q Q Q h k Q Q k h Q Q Q Q Q h g T 9 9 f d w O ",
",.t Q h T i Q Q h Q h Q Q Q h Q h Q Q Q h Q Q Q Q Q Q Q Q k h Q Q Q Q Q Q Q Q Q h Q Q Q Q Q Q Q Q Q Q Q Q Q Q Q b D 8 6 p 9 8 @ ",
"%.e a b T i Q Q Q Q Q Q h Q k Q Q Q k h k Q Q Q Q h Q Q Q Q Q Q h Q Q Q h Q Q Q Q Q Q Q Q Q Q Q Q Q Q Q Q Q Q Q D D r 7 9 5 0 * ",
",.t i k N Q Q Q Q Q Q Q Q Q Q Q Q Q Q Q Q Q Q h Q Q Q Q b h Q Q Q Q Q Q Q Q Q Q Q Q h Q Q Q Q h Q Q Q Q h Q Q Q b R d 8 r w q + ",
"p.e t a Q Q Q Q h Q Q Q Q Q Q Q h b Q Q Q Q Q Q Q Q Q Q Q Q Q Q Q Q Q Q Q Q Q Q Q Q Q h k Q Q Q Q Q Q Q Q h Q Q b Q Q j R p 9 + ",
"i.6 e i D H Q Q Q Q Q Q Q Q Q Q Q Q Q Q Q h Q Q Q Q h Q Q Q h Q Q Q Q Q Q h Q h Q Q Q Q Q Q Q Q h Q Q Q Q Q Q Q M i i ] ~ b 8 @ ",
"h.6 5 Q k T Q T Q Q Q Q Q Q h k Q Q h Q Q Q Q Q h Q k Q Q Q h Q Q Q h Q Q Q Q Q Q Q Q Q Q Q Q Q Q Q Q Q Q Q Q Q c a j A e f 5 $ ",
"y.6 e Q D D i N Q Q Q h Q Q Q Q Q Q k Q Q Q Q Q Q Q Q Q Q Q Q Q Q Q Q Q Q Q Q Q h Q Q Q Q h Q Q Q k h Q b h Q Q a T r e < f 8 @ ",
"u.9 6 a N N k g H T b h N Q g k Q Q Q Q Q Q Q Q Q Q h Q Q Q Q Q Q Q k h Q Q Q Q Q Q Q Q Q Q Q Q h Q Q h h Q k Q b g Q T e > @ # ",
"l.9 9 ( f i Z Z s u i x f Q T N Q Q Q Q h Q Q Q Q Q k Q Q Q Q k Q Q Q Q h Q Q Q Q Q Q h Q Q Q Q h b Q Q h h Q h b R H g i r 7 $ ",
"$.9 4 s ' +.i r > > 4 e e r g i Q h Q Q Q Q Q Q Q Q h Q h Q Q h Q h Q Q Q Q Q Q Q Q Q Q Q h Q h h Q Q Q k k M x i f f p j ' w # ",
"= > . - A r & > 1 8 a R i j T N Q Q Q Q Q Q h Q Q Q Q Q b Q Q Q Q b Q Q Q Q h Q Q h Q Q Q k Q Q h Q Q Q N N x g 9 u f b k A 4 @ ",
"O.5 w 4 X % e 1 : s ] Q Q D a Q Q Q h Q Q Q Q h Q h k Q Q Q Q Q Q Q h k h k Q Q Q Q Q Q Q h k Q k Q Q Q Q Q i e 5 9 s T T i 5 * ",
"v.u s ` e e S d & i ' i T ' a N Q Q k Q Q Q Q k Q Q Q Q Q Q h Q Q Q Q Q Q Q Q Q Q Q Q Q Q Q Q Q Q Q h h Q Q i e u i Q Q k b 8 @ ",
"o.u i T h N k i 8 k T a D Q i h Q Q Q Q Q Q Q Q Q Q Q h Q Q Q Q Q Q Q Q Q Q Q Q Q Q h k Q Q Q h Q Q Q Q Q T Q i a R Q a a f 8 + ",
", s T Q k N g N r i h g Q H H k Q h Q Q Q h Q Q Q Q Q Q Q Q Q k Q Q h Q Q Q Q h Q Q Q Q Q Q Q Q Q Q Q h g Q Q Q b b b c ( f 9 $ ",
"%.N h N T i N Q i e i k h Q N g Q Q Q Q Q Q h Q Q Q h k Q Q Q h Q Q Q Q Q Q Q Q Q Q Q Q h Q Q Q Q Q Q h Q Q Q Q Q T i e 9 d q $ ",
"f.N c h N i N h h y g N i Q T Q Q Q Q Q Q Q b Q Q Q Q Q b h Q Q Q Q h Q Q Q h Q Q Q Q Q Q Q Q Q Q Q Q Q h Q Q Q h f i e 5 r 7 + ",
"*.t i a Q Q N Q k i h N Q h Q Q Q Q h k k Q Q Q Q Q Q Q Q Q k h Q Q Q Q Q Q Q Q h Q Q Q Q Q Q k Q Q Q Q Q Q Q Q Q g f r 5 w 0 + ",
"0.e f N T N h Q T h Q N Q Q Q h h Q Q Q h Q Q Q Q Q h Q Q Q Q Q h k Q Q Q Q Q Q Q Q Q Q Q Q Q h h Q Q Q Q Q h Q N a T f 8 w 8 @ ",
"h.6 t p R R g H N Q h Q Q Q Q Q Q Q Q Q Q Q Q Q Q Q Q h k Q Q Q Q Q Q Q Q Q Q Q Q Q Q k Q Q Q Q Q Q Q Q Q Q Q Q k i ' Q w w 7 @ ",
"h.r 4 9 f R Q T Q Q Q Q Q Q Q Q Q Q Q Q h Q Q Q Q Q Q Q Q Q Q Q Q Q h Q h k Q Q Q Q Q h Q Q Q Q Q Q Q Q Q Q Q Q Q Q T j 9 w 7 @ ",
"..s w 9 R D Q g h Q Q h Q Q Q Q Q Q Q Q k Q Q h Q Q Q Q Q Q Q Q Q Q Q Q Q Q h b Q Q Q Q Q h Q h Q Q Q h h Q Q Q Q Q D r w r 7 $ ",
"> 4 8 9 f i T Q Q Q h g Q Q Q Q Q Q h Q Q Q Q Q h Q Q Q Q h Q Q Q Q k h Q Q Q Q Q h Q Q Q k Q Q Q Q Q Q Q Q Q Q Q T f e 8 w 4 @ ",
"..t 5 A H f N N Q Q Q h Q Q Q Q Q Q h Q Q Q Q Q Q Q Q h Q Q Q Q Q h Q Q Q h Q Q Q Q Q Q Q Q Q h k h Q Q k h h b h T f 4 w 0 0 @ ",
"s.u 5 d ' Q Q Q Q Q Q Q Q Q Q h Q Q k Q Q Q Q Q Q Q Q Q Q Q Q Q Q k Q Q Q Q Q Q Q Q h k Q Q Q Q N Q h Q x x N k Q D f 6 w 0 0 $ ",
"$.t e f Q H Q h Q Q Q Q Q Q Q Q Q h Q Q h Q h Q Q Q Q Q Q h Q h Q Q Q Q k h Q Q h b Q Q Q Q Q Q Q Q Q h h k x g f H R u 0 8 9 @ ",
"&.t i Q j T Q Q h Q Q Q k h Q Q Q b Q Q Q Q Q Q h Q Q Q Q k Q Q Q Q h Q Q Q Q Q Q Q Q k h Q Q Q i Q Q Q x x i e e i f f 9 9 7 @ ",
"i.p s T k k g Q Q Q Q Q Q Q h Q Q Q Q h h k Q Q Q Q Q Q Q Q h Q Q Q Q Q Q Q h b Q Q Q h Q Q Q Q h N Q Q Q Q i e 5 e p a t 9 9 @ ",
"6 e T T g ! k Q Q Q Q Q Q Q k Q Q Q Q k Q Q Q Q Q Q Q Q Q Q k Q Q Q Q Q Q Q Q Q Q Q Q Q h Q Q k Q k Q g Q N Q i e r h b p w 7 @ ",
"< i ] Q i ! N Q Q Q Q h b Q Q Q Q Q Q Q Q Q Q Q Q Q Q h Q Q h Q Q h Q h Q Q Q Q Q Q Q Q Q Q Q h b Q h Q Q Q Q Q A f ( c ( w 4 # ",
"+.| i j ! Q i T Q Q Q k h Q Q Q Q h Q Q Q Q Q h Q Q Q k Q Q Q Q Q k Q Q Q k h Q h Q Q Q Q Q Q Q Q Q Q Q Q Q Q Q D D b i b w 7 = ",
"l.i b Q T Q N Q Q Q h Q Q Q k Q Q Q Q Q Q Q Q Q Q Q Q Q h k Q Q Q Q h b k Q Q Q h Q Q Q Q Q Q Q Q Q Q Q Q Q Q Q i T 9 9 f d 9 O ",
",.e Q h N i Q Q Q Q k Q h Q h Q Q Q h Q Q Q h Q Q Q Q Q Q Q Q Q Q Q Q Q h Q Q Q b Q h Q h Q Q Q h Q Q b Q Q Q Q b D 8 8 p w 8 @ ",
"=.t a Q T i Q N b Q Q Q Q Q Q Q Q k Q Q Q Q Q Q h Q Q Q Q Q h Q Q k Q Q Q Q Q Q Q Q k Q Q Q h Q k Q Q h h k h Q D D r 4 9 4 0 * ",
",.t p N T Q Q Q h Q Q Q Q Q Q Q Q h Q Q Q Q Q Q Q Q Q k Q Q Q Q Q h Q Q Q Q Q Q h Q Q Q Q Q k Q Q Q Q Q Q Q Q Q b ' d 9 r r q + ",
"0.e e i k Q Q f Q Q Q Q Q h Q Q Q Q Q Q Q k Q Q Q Q Q h Q Q Q Q Q Q Q Q Q Q Q h Q Q Q Q Q Q Q Q Q Q Q Q Q Q Q Q c b D i R i 9 + ",
"0.6 e g Q T Q Q Q Q h k Q Q Q Q Q h Q Q Q h Q Q Q Q Q Q h Q Q Q h Q h Q Q Q Q Q Q Q Q Q h Q Q Q Q h Q Q Q h Q Q c i g ! ~ b 5 @ ",
"y.6 8 Q D T Q D Q Q Q Q Q Q h k Q Q Q Q Q Q Q h Q Q Q Q Q Q Q Q Q Q Q Q Q h k Q Q Q Q Q k Q Q b Q Q Q Q Q Q Q Q c a i d t Q 7 $ ",
"y.e e Q Q H i D Q Q h Q Q Q Q Q Q Q k h Q Q Q b h Q Q Q Q Q Q Q Q Q Q Q Q Q Q Q Q Q h Q Q Q Q h Q h Q Q Q Q Q Q a N d e < s 8 @ ",
"y.9 e D j Q  .g Q Q Q Q h Q Q Q h Q Q Q Q Q Q Q N Q h Q Q Q h Q Q Q k Q Q i Q N h Q Q Q Q h Q Q h Q h g k k k h N g Q N e ; @ # ",
",.5 8 D  .D Q h Q Q Q Q Q Q Q Q Q Q Q Q Q Q b h k h Q Q Q Q Q Q h Q Q Q Q Q Q Q Q Q k Q Q Q h Q N k k k Q i h Q b T D i p i 7 # ",
"d.9 y i T D h N Q Q Q Q Q Q Q Q Q Q Q Q h Q Q Q Q Q N N Q Q j k Q h Q Q Q Q Q h Q g Q Q Q Q Q Q Q Q k N Q Q Q H i f D i j ' r # ",
"5.e Q j i T Q N Q h Q Q Q Q Q h Q Q Q h k Q Q Q Q Q N Q Q Q Q Q Q Q Q Q h Q Q Q Q Q Q Q h Q Q h h Q b Q Q k Q i 6 u f b k j 8 # ",
"y.6 f T i T T i Q Q h Q Q Q h Q k Q Q Q Q Q Q h Q k Q Q Q D H H Q N k Q g Q Q h Q Q N Q g Q Q Q Q k b a Q T g e 5 9 f T T i 4 * ",
"v.9 i T Q N H Q Q Q Q Q Q Q Q Q h Q Q Q Q Q Q Q b Q Q Q H T S j i Q Q h h Q k Q i Q Q h h Q b Q a T R a R ' D r e i f Q k b 8 % ",
"..i f Q b h Q H Q Q Q Q h Q Q Q Q Q Q Q Q Q Q Q Q Q h Q D H d r e i N N g k x x e i Q Q Q Q k Q a b b f i Q f f f R b a a b 9 + ",
", u ' a T Q Q D Q Q Q Q k Q Q Q Q Q Q Q h Q Q Q Q Q Q Q D j r 5 e i Q T h x x x e i b k h Q Q h b a b a e 9 r d b b b b b f q $ ",
"+.N ! i Q T Q h M g Q f r w w w h h b f Q b b Q c h Q T b i t 9 g M Q h N N i N p e f a t h k h h a c s 9 7 w r a b x e e r w @ ",
"f.N N f Q Q h g g c j r 8 8 7 w h b b R Q b N h T Q i b T { f d N Z Q f N N Q N ` 9 9 e i T h ! h c b f s w 9 5 b b i 5 e r 0 @ ",
"*.i f D D D x k a b f 8 8 r 6 D a b D p i f a b h i f f f d u w e s f f T N Q k r : r d  . .i g h c b f i s u 8 k h T r w w 0 % ",
"0.e f ' T g x M ( i R 6 e Q i ' b d i s w t i b c N ] ] d r 0 4 9 i ] ] N h h k ` % f  .a i N N ( a i u t i Q Q h i T p 8 w 3 O ",
",.6 t p f a c b f 6 R f h N h h s u 9 9 9 5 r f h h i y 9 6 9 w 8 u s i i Q T N d & j Q i Q  .i p 9 9 6 8 e Q T _ a h i e w 8 $ ",
"z.9 5 6 u f b b 9 > i f H D h u w 9 8 w w 7 r d i t 9 6 9 9 9 w 8 9 9 r u Q Q u & 2 ] Q ~ T Q r w 9 w w w w i d p e e 8 9 r 4 @ ",
"O.9 8 7 5 w 8 7 1 . 4 4 w 8 8 3 4 7 7 0 0 7 7 9 w 8 7 8 7 9 7 7 8 7 8 8 4 w 4 & + 3 w 4 5 5 8 7 0 4 0 q 0 7 9 w w 4 4 7 w q 3 $ ",
": X $ + # @ @ # O O * + * + * # @ @ @ @ O @ @ + + + $ @ @ @ @ # @ @ * # O $ * O # $ + @ @ + $ $ + @ $ @ O @ @ O # # * + @ @ @ + "
};
