/* XPM */
static char *_9c3286a24824b788f70b9faba5b5e5cffbVPKGT6jojpirK[] = {
/* columns rows colors chars-per-pixel */
"64 64 161 2 ",
"   c None",
".  c #1F0400",
"X  c #230701",
"o  c #250A03",
"O  c #2B0D06",
"+  c #290E08",
"@  c #3D0F07",
"#  c #261506",
"$  c #2C1005",
"%  c #271A07",
"&  c #2D130D",
"*  c #331407",
"=  c #3A1805",
"-  c #3C1B09",
";  c #371607",
":  c #351C16",
">  c #272109",
",  c #282109",
"<  c #3C2D0D",
"1  c #36260A",
"2  c #29340C",
"3  c #2A3B0E",
"4  c #3B370E",
"5  c #3E2621",
"6  c #3F2823",
"7  c #451A0C",
"8  c #4B1D0D",
"9  c #411D07",
"0  c #55120A",
"q  c #5B150C",
"w  c #65160D",
"e  c #4A250C",
"r  c #542C0E",
"t  c #4C360F",
"y  c #572310",
"u  c #582310",
"i  c #412924",
"p  c #452E29",
"a  c #48312B",
"s  c #4F3A35",
"d  c #4C3631",
"f  c #2A420F",
"g  c #2B4310",
"h  c #3A4511",
"j  c #2C5514",
"k  c #2D5B15",
"l  c #355716",
"z  c #2E6317",
"x  c #2F6C19",
"c  c #2E6817",
"v  c #2F761B",
"b  c #2F781B",
"n  c #6F4014",
"m  c #764515",
"M  c #784616",
"N  c #7E4A17",
"B  c #78491A",
"V  c #5A4743",
"C  c #5C4844",
"Z  c #705F5A",
"A  c #7C604D",
"S  c #7F695E",
"D  c #74615A",
"F  c #7A6966",
"G  c #7D6D6A",
"H  c #A32217",
"J  c #A12419",
"K  c #D92C1F",
"L  c #DD2D20",
"P  c #E12E20",
"I  c #FF3325",
"U  c #F73224",
"Y  c #834E18",
"T  c #955B1C",
"R  c #985D1C",
"E  c #875119",
"W  c #9A631E",
"Q  c #A2651F",
"!  c #9D4421",
"~  c #935E25",
"^  c #A04622",
"/  c #A54823",
"(  c #9B6426",
")  c #A86922",
"_  c #B16F22",
"`  c #AF7222",
"'  c #BA7624",
"]  c #BC7925",
"[  c #C27C26",
"{  c #85544E",
"}  c #835853",
"|  c #836A59",
" . c #826D62",
".. c #80716E",
"X. c #907B6D",
"o. c #30821D",
"O. c #368F20",
"+. c #339C23",
"@. c #35A925",
"#. c #34B027",
"$. c #35B528",
"%. c #35BC29",
"&. c #36C62C",
"*. c #37CD2D",
"=. c #37D12E",
"-. c #7B806B",
";. c #CC8328",
":. c #C98127",
">. c #D28729",
",. c #D58A2A",
"<. c #DA8E2B",
"1. c #DD902C",
"2. c #E4952D",
"3. c #ED9B2F",
"4. c #ED9D31",
"5. c #F09D30",
"6. c #EDA135",
"7. c #EDA53A",
"8. c #EDAA3E",
"9. c #F4A030",
"0. c #828473",
"q. c #99867A",
"w. c #EDAD42",
"e. c #EDB247",
"r. c #ECB54A",
"t. c #ECBA4F",
"y. c #ECBD52",
"u. c #ECC157",
"i. c #ECC55B",
"p. c #ECC95F",
"a. c #ECCA60",
"s. c #968A88",
"d. c #9B908E",
"f. c #9F9492",
"g. c #A19694",
"h. c #A79D9A",
"j. c #AAA09E",
"k. c #B3AAA8",
"l. c #B2A9A7",
"z. c #B9B1AF",
"x. c #BAB2B0",
"c. c #C2BBB9",
"v. c #C7C1BF",
"b. c #C8C1BF",
"n. c #CAC3C2",
"m. c #CFC9C7",
"M. c #DBD7D6",
"N. c #DCD8D7",
"B. c #E3DFDE",
"V. c #E3E0DF",
"C. c #E5E1E1",
"Z. c #EEECEB",
"A. c #F0EFEF",
"S. c #F7F6F6",
"D. c #F6F6F6",
"F. c #F6F5F5",
"G. c #F7F6F6",
"H. c white",
"J. c #FEFEFE",
"K. c #FFFFFF",
"L. c #F8F7F7",
/* pixels */
"                                H.H.H.H.H.H.H.H.H.H.H.H.H.H.H.H.H.H.H.H.H.H.H.H.H.H.H.H.H.H.H.H.                                ",
"                              H.H.H.H.H.H.H.H.H.H.H.H.H.H.H.H.H.H.H.H.H.H.H.H.H.H.H.H.H.H.H.H.H.H.                              ",
"                              H.H.H.D.D.D.D.D.L.L.D.D.L.D.D.D.D.D.D.D.D.L.D.D.L.D.D.D.D.D.D.L.H.H.                              ",
"                            H.H.H.x.V V V V C V V C V V C C C C V V C C V C V V C C C C V V k.H.H.H.                            ",
"                        H.H.H.H.H.h.. X X X X X o X X X X X . X X . X X o X X X X X X o X . s.H.H.H.H.H.                        ",
"                      H.H.H.H.H.H.j.o o o o X X X X o o o X o o o o o o X X X o X o o . X . d.H.H.H.H.H.H.                      ",
"                      H.H.L.m.n.n.q.r r r r r r r r r r r r r r r r r r r r r r r r r r r r X.n.n.m.F.H.H.                      ",
"                    H.H.H.C.p & & n 2.2.2.2.2.2.2.2.2.2.2.2.2.2.2.2.2.2.2.2.2.2.2.2.2.2.1.3.N & & 5 M.H.H.H.                    ",
"                H.H.H.H.H.C.i o X n 4.3.3.3.3.3.3.3.3.3.3.3.3.3.3.3.3.3.3.3.3.3.3.3.3.3.3.6.N X o : M.H.H.H.H.H.                ",
"                H.H.H.H.H.C.6 X X n 3.3.4.3.3.3.3.3.3.3.3.3.3.3.3.3.3.3.3.3.3.3.3.3.3.3.3.3.N X o : M.H.H.H.H.H.H.              ",
"              H.H.H.k.F G S ~ R T ' 3.4.3.3.3.3.4.r.r.r.7.4.3.3.3.3.3.3.3.3.3.w.r.r.w.4.3.3.' T R ~ | G F h.H.H.H.              ",
"          H.H.H.H.H.G . X = >.9.4.3.3.4.3.3.3.3.7.p.a.a.w.2.3.3.3.3.3.3.3.3.4.t.a.a.y.4.3.3.3.4.5.<.- X . Z H.H.H.H.H.          ",
"        H.H.H.H.H.H.G X o - >.4.3.3.3.4.3.3.3.3.7.p.p.p.w.3.3.3.3.3.3.3.3.3.3.y.a.a.u.4.3.3.3.3.5.<.e X X D H.H.H.H.H.H.        ",
"        H.H.L.C.V.C. .= - e ,.3.3.4.4.4.4.3.3.3.6.u.u.u.w.3.3.3.6.6.6.4.3.3.4.r.i.u.t.4.3.3.3.3.5.<.r - = A N.C.B.D.H.H.        ",
"        H.H.m.p 5 5 ~ ,.>.,.3.3.3.8.u.u.y.7.3.3.4.4.6.4.4.3.4.6.y.i.i.r.3.3.3.6.6.6.4.3.3.3.3.3.3.3.,.>.,.( 5 5 i c.H.H.        ",
"        H.H.c.& o X T 9.3.3.3.3.3.w.a.p.a.7.3.3.4.3.4.4.3.3.3.4.u.p.p.r.3.3.3.3.3.3.3.3.3.3.3.3.3.3.4.5.9.Q o o o x.H.H.        ",
"        H.H.v.& o o R 5.3.3.3.3.3.8.p.p.p.7.4.3.4.3.3.3.3.3.3.4.y.a.a.r.3.3.4.3.3.3.3.3.3.3.3.3.3.3.3.3.5.Q o $ + x.H.H.        ",
"        H.H.b.& o o T 5.3.4.w.w.w.w.r.r.r.4.3.3.4.8.w.w.6.3.3.4.r.r.r.w.3.3.3.7.8.w.8.4.3.3.7.w.w.8.4.3.5.Q o o + z.H.H.        ",
"        H.H.v.& o o T 5.3.6.u.a.p.r.3.3.3.3.3.3.7.i.p.i.w.3.3.3.4.3.3.3.3.3.4.t.p.p.y.4.3.3.r.p.p.p.6.3.5.Q o O + x.H.H.        ",
"        H.H.b.& o o T 5.3.4.u.a.p.r.4.3.3.3.3.3.7.i.p.p.w.3.3.3.3.3.3.3.3.3.3.y.p.p.y.3.3.3.e.p.p.u.6.3.9.Q o o + x.H.H.        ",
"        H.H.v.& o o T 5.3.4.u.i.p.r.3.3.3.3.3.3.7.u.p.p.w.3.3.3.3.3.3.3.3.3.4.t.p.p.y.4.3.3.e.p.i.u.6.3.5.Q o o + x.H.H.        ",
"        H.H.b.& o o T 5.3.3.7.7.7.6.3.3.3.3.3.3.3.7.7.7.6.3.3.3.3.3.3.3.3.3.3.6.7.7.7.3.3.3.6.7.7.7.4.3.4.Q O o + x.H.H.        ",
"        H.H.v.& o o T 5.3.3.3.3.3.3.3.3.3.3.3.3.3.3.3.3.3.3.3.3.3.3.3.3.3.3.3.3.3.3.3.3.3.3.3.3.3.3.3.3.5.Q O o + x.H.H.        ",
"        H.H.b.& o o R 9.5.4.5.5.5.3.5.5.5.4.3.4.5.5.5.5.5.4.4.4.4.3.4.4.5.5.5.5.3.5.3.3.5.5.4.4.3.4.5.5.9.Q o o O x.H.H.        ",
"        H.H.v.& X o B ] ' ' ' ' ' ' ' ' ' ' ' ' ' ' ' ' ' ' ' ' ' ' ' ' ' ' ' ' ' ' ' ' ' ' ' ' ' ' ' ' ' Y o $ + x.H.H.        ",
"    H.H.H.H.v.& o o O $ $ $ $ $ O $ $ $ $ $ $ $ $ $ $ $ $ $ $ $ O O $ $ $ $ $ $ $ $ $ $ $ $ $ $ $ $ & # $ $ o o + x.H.H.H.H.    ",
"  H.H.H.H.H.n.& O o o o # o o o O o o o o $ o o o o o o o $ o o O o o $ o o o o $ o o o o $ o o o o o o o o o o + x.H.H.H.H.H.  ",
"H.H.H.H.H.J.v.& o o o o o o o o o o o o o o o o o # o o o o o o X o o o o # o o o o o o o o . # o o o o $ o o X o x.H.H.H.H.H.H.",
"H.H.L.d.F G } J J J H H H H H H J J H H H H H H J H H H H H H H H H H H J J H H H H H H H H H J H J H H H H H H J { G G s.D.H.H.",
"H.H.D.V . . 0 U I I I I I I I I I I I I I I I I I I I I I I I I I I I I I I I I I I I I I I I I I I I I I I I I I w . . d Z.H.H.",
"H.H.D.V X o 0 U I I I I I I I I I I I I I I I I I I I I I I I I I I I I I I I I I I I I I I I I I I I I I I I I I w X X s A.H.H.",
"H.H.D.V X o 0 L P P P P P P P P P P P P P P P P P P P P P P P P P P P P P P P P P P P P P P P P P P P P P P P P K q o X s A.H.H.",
"J.J.L.V o o O @ @ 7 @ @ @ @ @ 7 @ @ @ @ @ @ @ @ @ @ @ @ @ @ @ @ @ @ @ @ @ @ @ @ 7 @ @ @ @ @ @ @ @ @ @ @ @ @ @ @ @ + + X s A.H.H.",
"J.J.L.V X o o o X o o o o X X o $ o o o o o o o o o o o o o o o o o o o o o o $ o o X X o o o o o o o + o o o o o + o X s A.H.H.",
"H.H.L.V X o o o X o o o X o o o o o o o o o o o o o o o o o o o o o o X o o o o o o o o o o o o o o o o o o o o o o + X s A.H.H.",
"H.H.L.C X o & y u u u u u u u u y y u u u u u u u u u u u u u u u u u u y y y y u u u u u u u u u y y y u u u u u * o X s A.H.H.",
"H.H.F.V X o 7 ^ / / / / / / / / / / / / / / / / / / / / / / / / / / / / / / / / / / / / / / / / / / / / / / / / / 8 o X s A.H.H.",
"H.H.D.V X o 7 ! / / / / / / / / / / / / / / / / / / / / / / / / / / / / / / / / / / / / / / / / / / / / / / / / / 8 X o s A.H.H.",
"H.H.D.C X o 7 ! ^ ^ ^ ^ ^ ^ ^ ^ ^ ! ! ! ^ ^ ^ ^ ^ ^ ^ ^ ^ ^ ^ ^ ! ! ! / / ! ! / ^ ^ ^ ^ ^ ^ ^ ^ ^ ^ ^ ^ ^ ^ ^ ^ ! 8 o X s A.H.H.",
"H.H.F.V X o + 7 7 7 7 7 7 7 7 7 7 7 e 7 7 7 7 7 7 7 7 7 7 7 7 8 7 e 7 7 7 7 7 7 7 7 7 7 7 7 7 7 7 7 7 7 7 7 7 7 7 $ o X s A.H.H.",
"H.H.D.C X o + o o o o o o o o o o o o o o o o o o o o o o o o o o o o o o o o o o o o o o o o o o o o o o o o o o o o X s A.H.H.",
"H.H.D.V X o + X o o o o o o o O o o o o o o o o o o o o o o o o o o o o o o o o o o o o o o o o o o o o o o o X o o + X s A.H.H.",
"H.H.D.V X o $ 3 3 3 3 3 2 3 3 3 3 3 3 3 3 3 2 3 3 3 3 3 2 3 3 3 3 3 3 3 3 3 3 3 3 3 2 3 3 3 3 3 2 3 3 3 2 3 3 3 3 # o X s A.H.H.",
"H.H.D.V X o 2 %.&.&.&.&.&.&.&.&.&.&.&.&.&.&.&.&.&.&.&.&.&.&.&.&.&.&.&.&.&.&.&.&.&.&.&.&.&.&.&.&.&.&.&.&.&.&.&.&.&.g o X s A.H.H.",
"H.H.D.C X o 3 &.*.*.*.*.*.*.*.*.*.*.*.*.*.*.*.*.*.*.*.*.*.*.*.*.*.*.*.*.*.*.*.*.*.*.*.*.*.*.*.*.*.*.*.*.*.*.*.*.*.g o X s F.H.H.",
"H.H.D.V X X 2 &.*.&.*.*.*.*.*.*.*.*.*.*.*.*.*.*.*.*.*.*.*.*.*.*.*.*.*.*.*.*.*.*.*.*.*.*.*.*.*.*.*.*.*.*.*.*.*.*.&.f X X s Z.H.H.",
"H.H.L.z.f.f.0.l j j +.=.*.%.z j l b *.*.*.*.*.*.#.k j j j j j k %.*.*.*.*.*.&.b l j x &.*.*.*.*.*.&.c l l j j j j -.g.f.k.D.H.H.",
"H.H.H.H.H.H.n.& o o v =.=.$., X X j *.*.*.*.*.=.+.O o o X + X % #.*.*.*.*.*.&.3 X X 2 %.*.*.*.*.*.%., o o o o o + x.H.H.H.H.H.H.",
"  H.H.H.H.H.v.& o o b =.=.$., o X j *.*.*.*.=.=.+.$ o o o o o % $.=.*.*.=.=.&.f X X 2 &.=.*.=.=.*.%., o o o o O & z.H.H.H.H.H.  ",
"      H.H.H.v.& X + x $.$.@.< 9 = l $.$.$.$.$.$.O.1 - - - - - < +.$.$.$.$.$.#.h - - 4 @.$.$.$.$.$.@.4 - - * o o o x.H.H.H.      ",
"        H.H.b.& o o % % % < ] ,.,.W , , , , , % t ;.,.,.,.,.,.[ e > , , , , , Q ,.,.` 1 , , , , , 1 ' ,.<.T o o & x.H.H.        ",
"        H.H.b.& o o o O o - ,.5.5.Q o o o o + X r 2.4.4.5.5.5.,.1 X o o o o + _ 9.5.[ * o o o o o ; ;.5.9.Q o o o x.H.H.        ",
"        H.H.v.& o o o X X ; >.4.5.W o X . o o . e 2.3.3.3.3.3.,.9 X X X X X o _ 4.5.[ O X o . X o * ;.5.5.Q o O + x.H.H.        ",
"        H.H.v.& O o r M m Y 1.3.5.] M M B M M m T 2.3.3.3.3.5.<.E m B B M M B :.4.5.,.N M M B M m Y <.3.5.Q o o + x.H.H.        ",
"        H.H.v.& o o T 9.5.3.3.4.3.3.3.3.4.3.3.3.3.3.3.3.3.3.3.3.5.3.3.3.5.3.3.3.3.3.3.3.3.3.3.3.4.3.3.3.5.Q o O + x.H.H.        ",
"        H.H.v.& o o T 5.3.3.3.3.5.3.3.3.3.3.3.4.3.3.3.3.3.3.3.4.3.3.3.3.3.3.3.5.3.3.3.3.3.3.3.4.4.3.3.3.5.Q o o O x.H.H.        ",
"        H.H.n.: & & T 2.2.2.2.2.2.2.2.2.2.2.2.2.2.2.2.2.2.2.2.2.2.2.2.2.2.2.2.2.2.2.2.2.2.2.2.2.2.2.2.2.2.W & & & x.H.H.        ",
"        H.H.A.n.n.n.| r r r r r r r r r r r r r r r r r r r r r r r r r r r r r r r r r r r r r r r r r r A n.v.m.Z.H.H.        ",
"        H.H.H.H.H.H.G . o o o o X o X o o o X o o o X o o o o X X o X o o X o o X o o X o o X o o o X o X Z H.H.H.H.H.H.        ",
"          H.H.H.H.H.G X . X X X X X X X X X X X X . X X X X X X X X X X X X X X X X X X X X X X X X X X X Z H.H.H.H.H.          ",
"              H.H.H.g.V C C C C V C C V C C C C C C C C V C C V C C C C C C C C V C C V C C C C V V C C V s.H.H.H.              ",
"              H.H.H.L.D.D.D.D.D.L.D.L.L.L.D.L.D.D.D.L.D.L.D.L.L.L.D.L.D.D.D.D.D.L.D.L.L.L.D.L.D.D.D.L.D.L.L.H.H.H.              ",
"                H.H.H.H.H.H.H.H.H.H.H.H.H.H.H.H.H.H.H.H.H.H.H.H.H.H.H.H.H.H.H.H.H.H.H.H.H.H.H.H.H.H.H.H.H.H.H.H.                ",
"                  H.H.H.H.H.H.H.H.H.H.H.H.H.H.H.H.H.H.H.H.H.H.H.H.H.H.H.H.H.H.H.H.H.H.H.H.H.H.H.H.H.H.H.H.H.H.                  "
};
