/* XPM */
static char *_beede8c5a374d11a8e9d7c144a46eed1k61SWDvbC2KIjek[] = {
/* columns rows colors chars-per-pixel */
"64 64 139 2 ",
"   c None",
".  c #030300",
"X  c #0A0800",
"o  c #312901",
"O  c #461615",
"+  c #451815",
"@  c #4D1E17",
"#  c #451618",
"$  c #4A1619",
"%  c #471818",
"&  c #491B1A",
"*  c #463A01",
"=  c #493D01",
"-  c #4F2017",
";  c #522316",
":  c #572916",
">  c #5B2C16",
",  c #5F3115",
"<  c #643615",
"1  c #663814",
"2  c #6B3D14",
"3  c #4A2227",
"4  c #4B252C",
"5  c #4C2730",
"6  c #4C2933",
"7  c #4E2E3A",
"8  c #5D4D01",
"9  c #6F4113",
"0  c #734513",
"q  c #774913",
"w  c #794B12",
"e  c #7E5112",
"r  c #7E6901",
"t  c #6F1B53",
"y  c #741453",
"u  c #4F3242",
"i  c #503545",
"p  c #513749",
"a  c #513A4D",
"s  c #593653",
"d  c #533E53",
"f  c #7B226C",
"g  c #54445C",
"h  c #554660",
"j  c #564A65",
"k  c #594E6D",
"l  c #58506F",
"z  c #595373",
"x  c #5A5678",
"c  c #825411",
"v  c #855811",
"b  c #8B5E10",
"n  c #93660F",
"m  c #976A0F",
"M  c #996C0F",
"N  c #867002",
"B  c #887202",
"V  c #9E720E",
"C  c #8F6210",
"Z  c #A1740E",
"A  c #A77A0D",
"S  c #AB7E0D",
"D  c #8A1370",
"F  c #A68B02",
"G  c #AE810C",
"H  c #B2860C",
"J  c #B68A0B",
"K  c #B98D0B",
"L  c #AD9002",
"P  c #B69902",
"I  c #BD9E02",
"U  c #BB900B",
"Y  c #C5990A",
"T  c #C99D09",
"R  c #C3A302",
"E  c #C8A702",
"W  c #CAA902",
"Q  c #CDA109",
"!  c #D8AD07",
"~  c #D1A608",
"^  c #D4A908",
"/  c #DCB107",
"(  c #E1B606",
")  c #E5BC05",
"_  c #E9BE06",
"`  c #ECC205",
"'  c #F0C605",
"]  c #F4CA04",
"[  c #F9CE04",
"{  c #FFD503",
"}  c #FFD803",
"|  c #6E4B88",
" . c #695188",
".. c #605D88",
"X. c #5D6089",
"o. c #606491",
"O. c #606A97",
"+. c #616D9C",
"@. c #6472A6",
"#. c #6475A9",
"$. c #6579AF",
"%. c #667BB2",
"&. c #9F0D88",
"*. c #9D1188",
"=. c #921E88",
"-. c #8D268A",
";. c #C907BA",
":. c #FD02FF",
">. c #F70AFF",
",. c #F90AFF",
"<. c #D022E3",
"1. c #DD24F8",
"2. c #D633FF",
"3. c #E225FF",
"4. c #6882BE",
"5. c #6987C4",
"6. c #6B8CCC",
"7. c #6C8ED1",
"8. c #7A84D9",
"9. c #6C90D4",
"0. c #6E95DC",
"q. c #6F9AE3",
"w. c #709EE9",
"e. c #72A1EE",
"r. c #73A5F3",
"t. c #7AA6FF",
"y. c #77A9FF",
"u. c #75ADFF",
"i. c #76AFFF",
"p. c #75ACFE",
"a. c #78ABFF",
"s. c #78ACFF",
"d. c #79AFFF",
"f. c #7AA8FF",
"g. c #76B1FF",
"h. c #77B2FF",
"j. c #76B1FF",
"k. c #8E8DFF",
"l. c #9880FF",
/* pixels */
"                                                                                                                                ",
"                                                                                                                                ",
"                                                                                                                                ",
"                                        % % % % % % % % % % % % % % % % % % % % % % % % %                                       ",
"                                      % % % % % % % % % % % % % % % % % % % % % % % % % %                                       ",
"                                  % % % % % % % % % % % % % % % % % % % % % % % % % % % % % % %                                 ",
"                                  % % % % % % % % % % % % % % % % % % % % % % % % % % % % % % %                                 ",
"                            % % % % % % % % % % % % % % % % % % % % % % % % % % % % % % % % % % % % %                           ",
"                            % % % % % % % % % % % % % % % % % % % % % % % % % % % % % % % % % % % % %                           ",
"                      % % % % % % % % % % % % % % % % % % % % % % % % % % % % % % % % % % % % % % % % % % %                     ",
"                      % % % % % % % % % % % % % % % % % % % % % % % % % % % % % % % % % % % % % % % % % % %                     ",
"                      % % % % % % % % % # % % % % % % % % % % % % % # % % % % % % % % % % % % % % % % % % % % % %               ",
"                      % % % % % % % % - > > @ % % % % % % % % % % & > > ; # % % % % # % % % % % % % % % % % % % %               ",
"                % % % % % % % % % # # n ) ) v # # % % % % % % # # 1 / _ K % % % % % # # # % % # % % % % % % % % %               ",
"                % % % % % % % % - , > S } } Z > , & % % % % & > > c [ } T % % % % # : < < @ % # % % % % % % % % %               ",
"                % % % % % % # # v ` _ [ { { ] _ _ q # # # # > ! ` ' { } T % % # # # M ` _ c # # % % % % % % % % %               ",
"                % % % % % % # # b } { { { { } { { n , < < < w ` } { { } ~ 1 1 1 < < J } { V , < - # # % % % % % %               ",
"                % % % % % % # # b { { { { { { { { [ ` ' ' ' ' { { { { { { ] ` ` ' ' [ { { [ ` ` q # % # # # % % % % % %         ",
"                % % % % % % % # b { { { { { { { { { { } } { { { { { { { { { } } { } { { { { { { 0 # % 1 2 < & % % % % %         ",
"          % % % % % % % % % % # b { { } } } } } } { { { } { { { { { { { { { } } } } } { { { { [ 0 # ; ! { / : # % % % %         ",
"          % % % % % % % # # # # b } } / T R R R R ' } { { { { { { { { } ` R R E R R ) } { { { { m 0 e _ } ) : % % % % %         ",
"          % % % % % % % % # # # b } } N . . . . X P } { { { { { { { { } P X . . . . B } { { { { [ [ [ { } _ > % % % % %         ",
"          % % % % % % % # : w w G { } F * = = = = E } } { { } } { { { } R = * * * * F } { { { { { { { ~ Q K ; % % % % %         ",
"          % % % % % % # # q [ [ { { { { [ [ [ [ [ { { { } } } } } } { { { [ { [ [ [ { } { { { { { { ] 2 % & % % % % % %         ",
"          % % % % % % % # w [ } { { { { { { { { { } { [ I F L F L I { { { { { { { { { { { { { { ^ Y K > # % % % % % % %         ",
"          % % % % % % % # w { } { { { { { { { { { { } ' o . . . . o ' { { { { { { { } } } } { { w % % % % % % % % % % %         ",
"          % % % % % % % # 1 K K ~ } { { { { { } { { } [ r 8 8 8 8 r [ { { { { { { } / K U U U K < # % % % % % % % % % %         ",
"          % % % % % % % % % # # b } } } } } { } { { { { { } { { { { { { { { { } } } Z # % % % % % % % % % % % % % % % %         ",
"          % % % % % % % % % % # 9 H H H J H ( } { { { { { { { { { { { { { { { ( H J w # % % % % % % % % % % % % % % % %         ",
"          % % % % % % % % % % % + + # % # # J } } } } } } } } { { { { { } } } J # # # % % % % % % % % % % % % % % % % %         ",
"            % % % % % % % % % % % % % % % # c G A S S S A A J [ } { { { ) G G c + % % % % % % % % % % % % % % % % % %           ",
"                % % %       % % % % % % % % % # # # # # # # > _ { { { } Y % # % % % % % % % % % % % %       % % %               ",
"                                                      % % % > _ } { { } T @ % %               % % % %                           ",
"                                                        % # , ` } } } } T % % %                 % % %                           ",
"                                                    % % % # ; C M m m m c % % % % % % % %                                       ",
"                                                  % % % % % % # # # # # # % % % % % % + %                                       ",
"                                  % % % % % % % & X.@.+.6 % % % % % % % # % # d @.@.g # % % % % % % %                           ",
"                                  % % % % % % % & 5.j.r.i % % % % % % % & % # x j.j.X.# % % % % % % %                           ",
"                            % O g %.%.j % % z %.%.q.u.y.4.$.$.$.%.%.$.$.$.$.$.6.u.u.9.$.%.a # & X.%.#.7 # %                     ",
"                            % % z u.h.o.$ $ @.h.u.y.y.y.s.u.f.u.s.s.s.s.s.s.s.s.y.y.f.u.u.l # & 5.j.e.i % %                     ",
"                      % # a %.4.O.g g -.;.;.<.2.2.2.2.2.2.2.2.2.2.2.2.2.2.2.2.2.2.2.2.2.2.f + & p g j #.4.#.4 % %               ",
"                      % O g p.j.#.% O &.:.:.:.:.:.:.:.:.:.:.:.:.:.:.:.:.:.:.:.:.:.:.:.:.:.D % & % O 3 0.h.q.4 % %               ",
"                      % O d r.j.#.% % | l.l.l.l.l.l.l.l.l.l.l.l.l.l.l.l.l.l.l.l.l.l.l.l.l.8.5.4.i + 3 0.u.0.5 # %               ",
"                      % O a e.y.+.% O ..f.f.f.f.t.f.f.f.t.t.t.t.t.t.t.t.t.f.f.f.t.t.t.t.t.t.t.r.d O 3 6.y.9.4 # %               ",
"                      % + 3 p p 6 + + =.3.3.3.3.1.1.3.3.3.3.3.3.3.3.1.3.3.3.1.1.3.3.1.3.3.3.1.1.t + % 7 p u & % %               ",
"                      % + & ; ; - + + *.,.,.,.,.>.>.>.>.>.>.>.>.>.>.>.>.>.>.>.>.>.>.>.>.>.>.>.>.y + % ; ; ; % % %               ",
"                      + # 9 / ( A + +  .k.k.k.k.k.k.k.k.k.k.k.k.k.k.k.k.k.k.k.k.k.k.k.k.k.k.k.k.s # ; T ( T : % %               ",
"                      # # q ` ] G % + X.g.p.g.p.p.p.p.g.p.p.j.u.p.p.g.p.g.p.p.p.p.p.p.p.g.g.p.p.d # ; ^ ] ! : % %               ",
"                      % % - < < > # O X.u.y.y.u.u.p.p.u.u.u.u.u.u.u.u.u.u.u.u.u.p.y.p.p.u.u.j.r.d O % , < , % % %               ",
"                      % % % # # % % O X.u.u.u.u.u.y.p.y.w.q.q.q.q.q.q.q.w.u.y.u.p.p.p.p.u.u.u.r.d O + # # % % % %               ",
"                                  % % X.u.u.u.u.u.p.p.r.g 3 6 6 6 6 4 4 l y.u.y.p.p.y.p.u.y.u.y.d O %                           ",
"                                  % O X.u.u.u.y.u.p.p.e.i O % % + + O O g p.u.u.p.p.u.u.p.p.u.r.d O %                           ",
"                                  % + X.h.u.u.s.u.u.s.r.p + %       % # g y.u.u.u.u.u.u.u.s.j.y.d O %                           ",
"                                  % # z 9.9.9.7.9.9.9.5.7 % %       % O d 7.9.9.9.9.9.9.9.7.9.6.i O %                           ",
"                                  % % & 3 3 3 3 3 3 3 3 % % %       % % % 3 3 3 3 3 3 3 3 3 3 3 % % %                           ",
"                                  % % % % % % % + # % % % % %       % % % % % % % % % + % % # % % % %                           ",
"                                            % % % % % % % % %       % % % % % % % % % % %                                       ",
"                                            % % % % % % % % %       % % % % % % % % % % % %                                     ",
"                                        % % % % % % % % % % %       % % % % % % % % % % % % % %                                 ",
"                                        % % % % % % % % % % %       % % % % % % % % % % % % % %                                 ",
"                                                                                                                                ",
"                                                                                                                                ",
"                                                                                                                                ",
"                                                                                                                                "
};
