/* XPM */
static char *_e53842f075e465b9898679fb86e8917MPS0L6OXIwFvrdsy[] = {
/* columns rows colors chars-per-pixel */
"64 64 152 2 ",
"   c None",
".  c #010001",
"X  c #0E0B01",
"o  c #131000",
"O  c #290D0E",
"+  c #231D00",
"@  c #3D1514",
"#  c #282200",
"$  c #362D01",
"%  c #44130E",
"&  c #461615",
"*  c #461816",
"=  c #4C1C16",
"-  c #451618",
";  c #4D171F",
":  c #471818",
">  c #491B1C",
",  c #501F13",
"<  c #40210E",
"1  c #473C01",
"2  c #4F2215",
"3  c #542514",
"4  c #572816",
"5  c #5A2C16",
"6  c #633415",
"7  c #673814",
"8  c #6D3F14",
"9  c #491E22",
"0  c #4F1F2C",
"q  c #57162C",
"w  c #531C2C",
"e  c #5A1732",
"r  c #641E31",
"t  c #4B242C",
"y  c #4A2227",
"u  c #5A352C",
"i  c #4C2A34",
"p  c #4C2C3A",
"a  c #522233",
"s  c #5F3E34",
"d  c #6F4113",
"f  c #724413",
"g  c #7A4C12",
"h  c #7E5112",
"j  c #756201",
"k  c #6C1046",
"l  c #6B1E52",
"z  c #741452",
"x  c #4F3342",
"c  c #4F3648",
"v  c #50374A",
"b  c #523A4D",
"n  c #533D52",
"m  c #5A3452",
"M  c #7A2541",
"N  c #79367F",
"B  c #54435B",
"V  c #574A67",
"C  c #584F6E",
"Z  c #574D6B",
"A  c #5A5679",
"S  c #5B5A7F",
"D  c #595375",
"F  c #825511",
"G  c #865911",
"H  c #8B5E10",
"J  c #8F630F",
"K  c #95680F",
"L  c #996C0F",
"P  c #93660F",
"I  c #8B7402",
"U  c #9E720E",
"Y  c #8D6010",
"T  c #A97C0D",
"R  c #A27A0C",
"E  c #957022",
"W  c #9F8502",
"Q  c #BA8F0B",
"!  c #B5890C",
"~  c #AE9102",
"^  c #B79902",
"/  c #BF930A",
"(  c #C99C0A",
")  c #C1950A",
"_  c #CCA109",
"`  c #CDAB02",
"'  c #D9AE07",
"]  c #D1A508",
"[  c #D4AA09",
"{  c #DEB902",
"}  c #DBB703",
"|  c #E5BA06",
" . c #E9BF05",
".. c #E1B706",
"X. c #ECC205",
"o. c #F4CB03",
"O. c #F9CF04",
"+. c #F0C505",
"@. c #FFD503",
"#. c #FFD903",
"$. c #5C5D83",
"%. c #685A90",
"&. c #5E628B",
"*. c #5F6691",
"=. c #656684",
"-. c #6373A7",
";. c #6476AA",
":. c #677EB7",
">. c #7F6CC5",
",. c #9F0B85",
"<. c #803285",
"1. c #B42AC5",
"2. c #CD0BC5",
"3. c #D304C5",
"4. c #DF09DC",
"5. c #E502DB",
"6. c #C22DDC",
"7. c #EB00E4",
"8. c #F901F6",
"9. c #FD03FF",
"0. c #F407F8",
"q. c #C72EE5",
"w. c #D330F8",
"e. c #D931FF",
"r. c #8F58C5",
"t. c #A241C5",
"y. c #AE46DC",
"u. c #9960DC",
"i. c #8777DC",
"p. c #8472D2",
"a. c #B450F0",
"s. c #9C63E4",
"d. c #A96EFF",
"f. c #C14EFF",
"g. c #C350FF",
"h. c #6882BD",
"j. c #6986C4",
"k. c #698AC6",
"l. c #6B8DCE",
"z. c #6E92D4",
"x. c #6E96DC",
"c. c #6D98DD",
"v. c #719FEB",
"b. c #709AE4",
"n. c #71A0ED",
"m. c #73A6F5",
"M. c #75ACFE",
"N. c #78A9FE",
"B. c #74B1FF",
"V. c #76B1FF",
"C. c #9185FA",
"Z. c #9389FF",
/* pixels */
"                                                                                                                                ",
"                                                                                                                                ",
"                                                                                                                                ",
"                                                                                                                                ",
"                                                : : : : : : : : : : : : : : : : : : : : : : : :                                 ",
"                                                : : : : : : : : : : : : : : : : : : : : : : : :                                 ",
"                                      : : : : : : : : : : : : : : : : : : : : : : : : : : : : : : : :                           ",
"                                    : : : : : : : : : : : : : : : : : : : : : : : : : : : : : : : : :                           ",
"                                : : : : : : : : : : : : : : : : : : : : : : : : : : : : : : : : : : : : : :                     ",
"                                : : : : : : : : : : : : : : : : : : : : : : : : : : : : : : : : : : : : : :                     ",
"                          : : : : : : : : : : : : : : : : : : : : : : : : : : : : : : : : : : : : : : : : : : : :               ",
"                          : : : : : : : : : : : : : : : : : : : : : : : : : : : : : : : : : : : : : : : : : : : :               ",
"                          : : : : : : : : - & & : : : - - - : : : : : : : : : : : : : : : : : : : : : : : : : : :               ",
"                          : : : : : : : : 7 d 6 : : 4 8 8 2 : : : : : : : : : : : : : : : : : : : : : : : : : : :               ",
"                          : : : : : : - 4 ' O.( > - L O.+.g - - : : : : : : : : : : : : : : : : : : : : : : : : : : :           ",
"                          : : : : : : - 5 | #.[ > - U @.@.R f f = : : : : : : : : : : : : : : : : : : : : : : : : : :           ",
"                                : : - - 3 ..#.] = - L #.@.@.@.| 5 - : : : : : : : : : : : : : : : : : : : : : : : : :           ",
"                                : : f H J X.#...H G ) @.@.@.@. .5 : : : : : : : : : : : : : : : : : : : : : : : : : :           ",
"                                : : / #.@.@.@.@.@.@.@.@.@.@.@. .5 : : : : - & - - - - : : : : : : : : : : : : : : : :           ",
"                                : : ) #.@.@.@.@.@.@.@.@.@.@.@. .6 : : : - f L L L L H 2 : : : : : : : : : : : : : : :           ",
"                                : = / #.@.@.#.#.#.@.@.@.@.@.@. .5 : : - - T #.@.@.#.| 4 - : : : : : : : : : : : : : :           ",
"                                : : / #.o.I j j j j ^ #.@.@.@. .5 - 7 T T [ @.@.@.@.| 4 : : : : : : : : : : : : : : :           ",
"                                : : / #.X.+ . . . . j #.@.@.@. .4 - h @.@.@.@.@.@.#...4 - : : : : : : : : : : : : : :           ",
"                          : - F Q / | #.o.~ W W W W ` @.@.@.@. .5 - g @.@.@.@.@.T Y F > : : : : : : : : : : : : : : :           ",
"                          : - K #.#.@.@.@.#.#.#.#.#.@.@.@.@.@. .6 - F O.@.@.@.o.f - - : : : : : : : : : : : : : : : :           ",
"                          : - K @.@.@.@.@.@.@.@.@.@.@.@.@.@.@.O.] ( ' @.@.Q g g 3 : - - : : : : : : : : : : : : : : :           ",
"                          : - J o.o.o.o.o.@.@.@.@.@.@.@.@.@.@.@.#.#.@.o.O.L - - - : : : : : : : : : : : : : : : : : :           ",
"                          : : < $ $ $ $ 1 | @.@.@.@.@.@.@.@.@.@.@.@.[ f 8 4 - - : : : : : : : : : : : : : : : : :               ",
"                          : : O . . X o # { #.@.@.@.@.@.@.@.@.@.@.#.( : - - : : : : : : : : : : : : : : : : : : :               ",
"                              @ @ @ R } { @.#.#.@.@.#.@.#.@.@.@.@.@.( : - : : : : : : : : : : : : : :       : : :               ",
"                                : : !  .| ..| | | | | | | ..|  .@.@.] 6 6 3 : : : : : : : : : : : : :       : : :               ",
"                                    5 5 4 5 5 4 5 4 5 4 5 5 4 8 X.@.O.+.+.K - : : : :       : :                                 ",
"                                    : - : - : - : - : - : : - 5  .@.@.@.#.U - : : : :       : :                                 ",
"                                                          : : 5 X.#.#.#.#.U - :                                                 ",
"                                                          : & 4 / _ _ _ _ G - :                                                 ",
"                                                          : : : = = : = = : : :                                                 ",
"                                                          : : : & & i Z C x & : :                                               ",
"                                                      & & & & & & % B M.M.$.& : : & &                                           ",
"                                                    B $.$.$.$.$.$.S -.M.V.$.& : V $.A t                                         ",
"                                                : & &.V.V.M.M.M.V.V.M.M.M.$.& 9 k.B.c.t : :                                     ",
"                                                : & <.f.f.f.f.a.%.S -.N.V.$.& ; t.f.y.w : :                                     ",
"                                                - & ,.9.9.9.9.7.e % B N.M.$.& 9 3.9.5.q : :                                     ",
"                                          : & v -.-.p.d.d.d.d.s.w & B M.M.$.& 9 r.d.u.w : :                                     ",
"                                          : & n N.V.M.M.M.M.M.b.i % B m.M.$.& > j.V.x.t : :                                     ",
"                                          : : l w.e.e.e.e.e.e.q.e : t n V i & ; 1.e.6.0 = :                                     ",
"                                          : : z 0.0.0.9.0.8.8.5.r 2 2 2 3 : - ; 2.9.5.q : :                                     ",
"                                          : & m C.Z.Z.Z.Z.N k M ( ' ' ' ' H - 9 p.Z.i.t : :                                     ",
"                                          : : b m.B.M.B.M.B % 5 X.#.@.@.#.U - > h.B.c.t : :                                     ",
"                                          : : n m.V.M.M.m.B & 5 X.#.@.#.#.U - > k.V.x.t : :                                     ",
"                                          : : b x.x.n.M.M.D p s ] | | | ..E p x l.M.x.t : :                                     ",
"                                                t y *.V.M.n.v.z.u 4 4 4 3 =.n.v.M.M.x.t & :                                     ",
"                                                & & A l.l.m.M.v.B c v c c ;.M.M.x.l.:.t = :                                     ",
"                                                      9 y j.V.B.m.M.m.m.m.M.B.M.B 9 y                                           ",
"                                                      : : &.h.h.h.h.h.h.h.h.h.:.p : :                                           ",
"                                                      : : ; > > > > ; > > > > ; : : :                                           ",
"                                                      : : : : : : : : : : : : : : : :                                           ",
"                                                          : : : : : : : : : : :                                                 ",
"                                                          : : : : : : : : : : :                                                 ",
"                                                      : : : : : : : : : : : : :                                                 ",
"                                                                                                                                ",
"                                                                                                                                ",
"                                                                                                                                ",
"                                                                                                                                ",
"                                                                                                                                "
};
