/* XPM */
static char *f9283c4e81f045f0f49050e5cc046721kuFx6H9Zli2CMGmU[] = {
/* columns rows colors chars-per-pixel */
"64 64 146 2 ",
"   c None",
".  c #060500",
"X  c #0E0405",
"o  c #0D0B00",
"O  c #120F00",
"+  c #1C0C08",
"@  c #141000",
"#  c #261C03",
"$  c #292200",
"%  c #332B01",
"&  c #382F01",
"*  c #461615",
"=  c #481714",
"-  c #451816",
";  c #4D1E17",
":  c #451618",
">  c #471818",
",  c #491B18",
"<  c #463A01",
"1  c #4F2017",
"2  c #532517",
"3  c #5A2C16",
"4  c #5F3015",
"5  c #623415",
"6  c #673814",
"7  c #491D20",
"8  c #5C1F3D",
"9  c #5F1233",
"0  c #65143D",
"q  c #4A2025",
"w  c #4D2B35",
"e  c #4D2D39",
"r  c #57263D",
"t  c #532437",
"y  c #4E303D",
"u  c #6F5C01",
"i  c #724513",
"p  c #7A4C12",
"a  c #7F5112",
"s  c #691342",
"d  c #601F42",
"f  c #771153",
"g  c #5C2442",
"h  c #582842",
"j  c #4F3341",
"k  c #503546",
"l  c #513749",
"z  c #513849",
"x  c #533E53",
"c  c #642853",
"v  c #77256A",
"b  c #6A366A",
"n  c #55445D",
"m  c #554660",
"M  c #574C69",
"N  c #5B577A",
"B  c #5B597D",
"V  c #5A5476",
"C  c #674A7D",
"Z  c #805311",
"A  c #875A11",
"S  c #895B11",
"D  c #8F650D",
"F  c #966A0F",
"G  c #93660F",
"H  c #897202",
"J  c #9E710E",
"K  c #906310",
"L  c #A1740E",
"P  c #A5790D",
"I  c #AB7F0C",
"U  c #937433",
"Y  c #880D6C",
"T  c #89106B",
"R  c #9E4344",
"E  c #9F8502",
"W  c #AD820B",
"Q  c #A88C02",
"!  c #B1840B",
"~  c #BE920A",
"^  c #C1950A",
"/  c #C59A0A",
"(  c #CA9E09",
")  c #CCAA02",
"_  c #CEA209",
"`  c #D9AE07",
"'  c #D1A508",
"]  c #D4A908",
"[  c #D7B403",
"{  c #DBB305",
"}  c #DDB903",
"|  c #E1B606",
" . c #E5BC05",
".. c #E9BE06",
"X. c #E7C103",
"o. c #ECC304",
"O. c #EFC803",
"+. c #F1C705",
"@. c #F4CA04",
"#. c #F9CF04",
"$. c #FFD503",
"%. c #FFD903",
"&. c #5C5C83",
"*. c #5F638E",
"=. c #5F6591",
"-. c #606995",
";. c #616B9A",
":. c #6476AB",
">. c #6579AF",
",. c #6374A7",
"<. c #667CB4",
"1. c #677FB8",
"2. c #7C78CE",
"3. c #B609A3",
"4. c #BA16B7",
"5. c #EE01E7",
"6. c #F300ED",
"7. c #F600F0",
"8. c #FF00FF",
"9. c #C43AED",
"0. c #C43CF0",
"q. c #CE3DFF",
"w. c #D03DFF",
"e. c #BE41ED",
"r. c #9B6BEB",
"t. c #9D6DF0",
"y. c #A165ED",
"u. c #A96CFF",
"i. c #A468F5",
"p. c #A373FF",
"a. c #C041F0",
"s. c #C642FA",
"d. c #C944FF",
"f. c #6C8ED0",
"g. c #6D92D7",
"h. c #6D93D8",
"j. c #6E9EE5",
"k. c #719FEA",
"l. c #6FA3EC",
"z. c #71A0ED",
"x. c #72A4F2",
"c. c #72AEFD",
"v. c #75ADFF",
"b. c #76AFFF",
"n. c #75ADFE",
"m. c #76B0FF",
/* pixels */
"                                                                                                                                ",
"                                                                                                                                ",
"                                                                                                                                ",
"                                  : , > , : , : > > > > > > > > > > > > > > > > , : , > >                                       ",
"                                  > > > > > > > > > > > > > > > > > > > > > > > > > > > ,                                       ",
"                            > > > > > > > > > > > > > > > > > > > > > > > > > > > > > > : : , > > > >                           ",
"                          > > > > > > > > > > > > > > > > > > > > > > > > > > > > > > > , : > > > > > >                         ",
"                    > > > > > > > > > > > > > > > > > > > > > > > > > > > > > > > > > > > > > > > > > > > > >                   ",
"                    > > > > > > > > > > > > > > > > > > > > > > > > > > > > > > > > > > > > > > > > > > > > >                   ",
"              > > > > > > > > > > > > > > > > > > > > > > > > > > > > > > > > > > > > > > > > > > > > > > > > > > >             ",
"              > > > > > > > > > > > > > > > > > > > > > > > > > > > > > > > > > > > > > > > > > > > > > > > > > > >             ",
"              > > > > > > > > > > > > > > > > > > > > > > > > > > > > > > > > > > : > > > > : : : > > > > > > > > >             ",
"              > > > > > > > > > > > > > > > > > > > > > > > > > > > > > > > , 3 3 2 , , , 2 3 3 1 > > > > > > > > >             ",
"        > > > > > > > > > > > > > > > > > > > > > > > > > > > > > > > > : : 6 { ..` 3 : , ~ .. .S : > > > > > > > >             ",
"        > > > > > > > > > > > > > > > > > > > > > > > > > > > > > > > ; 3 3 a #.$.o.5 : ; ' %.%.K : > > > > > > > >             ",
"        > > > > > > > > > > > > > > > > > > > > > > > > > > > > > > : Z ....o.$.$.o.3 : , ' %.%.K : : : > > >                   ",
"        > > > > > > > > > > > > > > > > > > > > > > > > > > > > > > : S $.$.$.$.$.o.i 3 5 ] %.$.L 3 5 2 : > >                   ",
"        > > > > > > > > > > > > > > > > > > > : : : : : : : > > > > : A $.$.$.$.$.$.o.o.o.#.$.%.+...o.P : , >                   ",
"        > > > > > > > > > > > > > > > > > > , 5 5 5 5 5 5 2 : : > > : A $.$.$.$.$.$.$.$.$.$.%.%.$.%.%.! : : ,                   ",
"        > > > > > > > > > > > > > > > > > : 5 { o...o.o...p : : : > : S $.$.$.$.$.$.%.$.$.$.%.%.%.%.%.! : , :                   ",
"        > > > > > > > > > > > > > > > > > : 6 +.$.$.$.%.$.F 5 6 2 > : S $.$.$.$.$.$.} [ [ [ [ [ O.$.%.! : : :                   ",
"        > > > > > > > > > > > > > > > > > : 6 +.%.$.$.$.$.+.o.+.F : : S $.$.$.$.$.X.% O @ @ @ @ E %.%.! : : :                   ",
"        > > > > > > > > > > > > > > > > , : 3 ] | | $.$.$.$.$.%.J : : S $.$.$.$.%.X.< $ $ $ $ $ Q %.%.~ 5 6 6                   ",
"        > > > > > > > > > > > > > > > > : , , 2 2 5 { %.%.$.$.%.J : : A $.$.$.$.%.$.o.o.o.o.o.o.@.%.$.#.+.@./ , : ,             ",
"        > > > > > > > > > > > > > > > > > > > : : 2 ^ | | @.$.$.I 6 6 J $.$.$.$.$.$.$.$.$.$.$.$.$.$.$.$.%.%._ 1 , :             ",
"        > > > > > > > > > > > > > > > > > > > > > > 2 2 2 ( %.$.#.@.@.@.$.$.$.$.$.$.$.$.$.$.$.$.$.%.%.%.%.%._ , : ,             ",
"        > > > > > > > > > > > > > > > > > > > > > > : : > I { ` +.$.$.$.$.$.$.$.$.$.$.$.$.$.$.$.} ) ) ) ) ) W - > >             ",
"              > > > > > > > > > > > > > > > > > > > > : > , 2 , I $.$.$.$.$.$.$.$.$.$.$.$.$.$.$.u . o o O o + > > >             ",
"              > > > > > > > > > > > > > > > > > > > > > > > : : P %.$.$.$.$.$.$.$.$.$.$.$.$.$.$.H % & # X X + : : ,             ",
"              > > >       > > > > > > > > > : , > > > > > : : : P %.$.$.$.$.$.%.%.%.$.%.%.%.%.%.$.@.#.W : : :                   ",
"              > > >         > > > : > > > , : : > > > > > 6 i i ~ $.$.o.] ] ] ] ] ] ] ] ' ] ) ] ] ] ] J : > ,                   ",
"                                  , > >       , > > > > , ~ $.@.$.$.%.^ ; ; 1 ; ; 1 ; ; 1 ; 1 1 1 1 1 1                         ",
"                                  > > >       , > > > > > / %.%.$.$.%.~ > > > > > : > : > > : > : > :                           ",
"                                                    > > > / %.%.%.$.%.~ > > >                                                   ",
"                                                    > > > L ' ( _ _ _ J > > >                                                   ",
"                                                    > > > ; ; > , , ; , > > >                                                   ",
"                                                    > > : k n n w * > > > > >                                                   ",
"                                              : : = > > : <.v.v.&.* = : : * * * * :                                             ",
"                                              n m n q > , 1.m.v.:.n m m m n n m m n                                             ",
"                                        > : y l.m.z.y * , <.m.v.v.v.v.v.c.c.c.c.c.j.w > >                                       ",
"                                        > : r r.p.t.h - , <.m.v.g.>.<.2.p.p.p.p.p.r.t : >                                       ",
"                                        > > 0 6.8.7.s > > <.m.v.*.* - T 8.8.8.8.8.5.9 * -                                       ",
"                                        > > 8 9.d.0.0 - > 1.v.m.*.* * v d.q.q.q.q.e.C M M y                                     ",
"                                        > : y l.m.l.k * , 1.m.m.&.* * M m.c.c.m.c.m.c.c.x.n * >                                 ",
"                                        > - r y.u.i.h * > N ,.,.n * * b u.u.u.u.u.u.u.u.i.c * >                                 ",
"                                        > - 0 6.8.6.s - > : : : : : * Y 8.8.8.8.8.8.8.8.8.f - >                                 ",
"                                        > - 8 e.d.a.d : > p K K D K D R 3.3.4.s.d.d.d.d.s.d > >                                 ",
"                                        > > y z.v.z.k : > / %.%.%.$.%.~ : * k x.v.c.c.v.c.n * >                                 ",
"                                        > : k k.v.k.k : > / %.%.$.$.$.~ > = l x.v.v.v.v.x.x * >                                 ",
"                                        > > e x.v.x.y * = / %.%.%.%.%.^ = = k x.v.v.b.v.v.x * >                                 ",
"                                        > = e k.b.x.-.N N U ! W I ! I U N N ;.n.v.x.,.;.-.z : >                                 ",
"                                        > > e x.b.b.b.v.v.n * : * * * M v.v.b.m.b.k.w = >                                       ",
"                                        , > w *.-.;.z.v.v.,.B &.&.&.B >.v.v.j.;.-.*.w = >                                       ",
"                                              : > 7 g.b.b.m.m.b.v.v.m.v.v.v.f., > >                                             ",
"                                              > > 7 N *.*.*.*.*.*.*.*.*.*.-.N , > >                                             ",
"                                              > > > : > > > = : = : * > * : : > > >                                             ",
"                                                  > > > > > > > > > > > > > > >                                                 ",
"                                                    > > > > > > > > > > > > >                                                   ",
"                                                    > > > > > > > > > > > > > > >                                               ",
"                                                    > > > > > , > > > > > > > > > ,                                             ",
"                                                                                                                                ",
"                                                                                                                                ",
"                                                                                                                                ",
"                                                                                                                                "
};
