/* XPM */
static char *_d9504bc43374367fe7dc4ccc3f64688j5iOU9Di9IxuyukG[] = {
/* columns rows colors chars-per-pixel */
"64 64 249 2 ",
"   c None",
".  c #451310",
"X  c #431510",
"o  c #441611",
"O  c #461412",
"+  c #461513",
"@  c #441713",
"#  c #461613",
"$  c #441314",
"%  c #441414",
"&  c #451414",
"*  c #451514",
"=  c #461514",
"-  c #461614",
";  c #461615",
":  c #441417",
">  c #471716",
",  c #461717",
"<  c #471717",
"1  c #441814",
"2  c #461816",
"3  c #471817",
"4  c #4C1D17",
"5  c #441518",
"6  c #451518",
"7  c #451618",
"8  c #461618",
"9  c #461718",
"0  c #471818",
"q  c #471819",
"w  c #471919",
"e  c #451B18",
"r  c #47191A",
"t  c #471A1B",
"y  c #451C19",
"u  c #481918",
"i  c #491A18",
"p  c #4A1B18",
"a  c #481A1C",
"s  c #481B1D",
"d  c #4F2017",
"f  c #502117",
"g  c #512217",
"h  c #512317",
"j  c #522417",
"k  c #552716",
"l  c #562716",
"z  c #572816",
"x  c #582916",
"c  c #592A16",
"v  c #592B16",
"b  c #5A2C16",
"n  c #5B2C16",
"m  c #5B2D16",
"M  c #5F3115",
"N  c #613214",
"B  c #643614",
"V  c #663714",
"C  c #471C20",
"Z  c #471D23",
"A  c #481D23",
"S  c #491F23",
"D  c #481E25",
"F  c #58162E",
"G  c #56182E",
"H  c #4A2025",
"J  c #4A2125",
"K  c #4A2126",
"L  c #4A2228",
"P  c #4A2329",
"I  c #4E232E",
"U  c #4B252C",
"Y  c #4B252D",
"T  c #4B262D",
"R  c #4B262E",
"E  c #4C252E",
"W  c #4C272F",
"Q  c #4C2730",
"!  c #4D2A34",
"~  c #4D2A35",
"^  c #4D2B36",
"/  c #4D2C38",
"(  c #4E2D39",
")  c #724413",
"_  c #744613",
"`  c #6B1244",
"'  c #7C0F58",
"]  c #781457",
"[  c #731957",
"{  c #701D57",
"}  c #7A1359",
"|  c #7C145D",
" . c #582C46",
".. c #4F3342",
"X. c #503646",
"o. c #503748",
"O. c #513748",
"+. c #513749",
"@. c #513849",
"#. c #523B4F",
"$. c #513D4F",
"%. c #5B3757",
"&. c #523C50",
"*. c #523D51",
"=. c #533E53",
"-. c #533F54",
";. c #533F55",
":. c #573D57",
">. c #6E3974",
",. c #534056",
"<. c #534157",
"1. c #544057",
"2. c #544157",
"3. c #544158",
"4. c #54425A",
"5. c #54435B",
"6. c #55445D",
"7. c #55455E",
"8. c #564761",
"9. c #564863",
"0. c #564964",
"q. c #564A66",
"w. c #574A66",
"e. c #574B67",
"r. c #574C69",
"t. c #584E6C",
"y. c #595171",
"u. c #595172",
"i. c #585878",
"p. c #5B587C",
"a. c #825511",
"s. c #8B5E10",
"d. c #94670F",
"f. c #A0740E",
"g. c #A1740E",
"h. c #A1750E",
"j. c #A2760E",
"k. c #A5790D",
"l. c #AB7F0D",
"z. c #AF830C",
"x. c #B0840C",
"c. c #B1850C",
"v. c #C4980A",
"b. c #C99E09",
"n. c #D8AD07",
"m. c #D0A508",
"M. c #D1A608",
"N. c #E4B906",
"B. c #EAC005",
"V. c #EBC005",
"C. c #EBC105",
"Z. c #EEC305",
"A. c #F5CB04",
"S. c #F6CC04",
"D. c #FFDB02",
"F. c #FFDD02",
"G. c #FFDE02",
"H. c #5C5D84",
"J. c #616B9A",
"K. c #626E9D",
"L. c #626E9F",
"P. c #626F9F",
"I. c #6D62A2",
"U. c #6270A1",
"Y. c #6371A3",
"T. c #6577AD",
"R. c #667CB4",
"E. c #667CB5",
"W. c #8A3EA1",
"Q. c #D21BDE",
"!. c #E00ADE",
"~. c #F402F2",
"^. c #F900F6",
"/. c #FE00FB",
"(. c #FE00FC",
"). c #FE01FF",
"_. c #FF01FF",
"`. c #F508FA",
"'. c #F908FF",
"]. c #FA08FF",
"[. c #E51CFA",
"{. c #E91CFF",
"}. c #EA1CFF",
"|. c #D62BF5",
" X c #DA2AFA",
".X c #DD2AFF",
"XX c #DE2AFF",
"oX c #8779DF",
"OX c #9875F2",
"+X c #9D7AFF",
"@X c #9D7BFF",
"#X c #6883BF",
"$X c #6884C0",
"%X c #6985C3",
"&X c #6B8BCB",
"*X c #6C8ED0",
"=X c #788BDE",
"-X c #6C90D3",
";X c #6C90D4",
":X c #6C91D4",
">X c #6D91D5",
",X c #6C94D7",
"<X c #6D94D9",
"1X c #6E96DD",
"2X c #6E97DE",
"3X c #6F97DF",
"4X c #6E98DE",
"5X c #709DE7",
"6X c #709DE8",
"7X c #719FEB",
"8X c #7F9BFA",
"9X c #71A0ED",
"0X c #71A1ED",
"qX c #72A1EE",
"wX c #72A2F0",
"eX c #70A6F1",
"rX c #73A4F3",
"tX c #73A5F3",
"yX c #73A5F4",
"uX c #73A5F5",
"iX c #73A6F5",
"pX c #77A5FA",
"aX c #73A9F8",
"sX c #72AAF9",
"dX c #73AAFA",
"fX c #74A8F9",
"gX c #74A9FA",
"hX c #74A9FB",
"jX c #74AAFC",
"kX c #72AEFD",
"lX c #73AEFE",
"zX c #73AFFF",
"xX c #75ACFE",
"cX c #75ACFF",
"vX c #74ADFF",
"bX c #75ADFF",
"nX c #75AEFF",
"mX c #76AEFF",
"MX c #76AFFF",
"NX c #78A8FF",
"BX c #76B1FF",
"VX c #77B1FF",
"CX c #8F87FA",
"ZX c #9189FF",
"AX c #918AFF",
"SX c #928AFF",
"DX c #809EFF",
"FX c #809FFF",
"GX c #80A0FF",
/* pixels */
"                                                                                                                                ",
"                                                                                                                                ",
"                                          0 0 0 0 0 0 0 0 0 0 0 0 0 0 0 0 0 0 0 0 0 0 0 0 0                                     ",
"                                          0 0 0 0 0 0 0 0 0 0 0 0 0 0 0 0 0 0 0 0 0 0 0 0 0 0                                   ",
"                                    0 0 0 0 0 0 0 0 0 0 0 0 0 0 0 0 0 0 0 0 0 0 0 0 0 0 0 0 0 0 0                               ",
"                                    0 0 0 0 0 0 0 0 0 0 0 0 0 0 0 0 0 0 0 0 0 0 0 0 0 0 0 0 0 0 0                               ",
"                              0 0 0 0 0 0 0 0 0 0 0 0 0 0 0 0 0 0 0 0 0 0 0 0 0 0 0 0 0 0 0 0 0 0 0 0 0                         ",
"                              0 0 0 0 0 0 0 0 0 0 0 0 0 0 0 0 0 0 0 0 0 0 0 0 0 0 0 0 0 0 0 0 0 0 0 0 0                         ",
"                        0 0 0 0 0 0 0 0 0 0 0 0 0 0 0 0 0 0 0 0 0 0 0 0 0 0 0 0 0 0 0 0 0 0 0 0 0 0 0 0 0 0 0                   ",
"                        0 0 0 0 0 0 0 0 0 0 0 0 0 0 0 0 0 0 0 0 0 0 0 0 0 0 0 0 0 0 0 0 0 0 0 0 0 0 0 0 0 0 0                   ",
"                    0 0 0 0 0 0 0 0 0 0 0 0 0 0 0 0 0 0 0 0 0 0 0 0 0 0 0 0 0 0 0 0 0 0 0 0 0 0 0 0 0 0 0 0 0                   ",
"                    0 0 0 0 0 0 0 0 0 0 0 0 0 0 0 0 0 0 0 0 0 0 0 0 0 0 0 0 0 0 0 0 0 0 0 0 0 0 0 0 0 0 0 0 0                   ",
"                    0 0 0 0 0 0 0 0 0 0 0 0 0 0 0 0 0 0 0 0 0 0 0 0 0 0 0 0 0 0 0 0 0 0 0 0 0 0 0 0 0 0 0 0 0 0 0               ",
"                    0 0 0 0 0 0 0 0 0 0 0 0 0 0 0 0 0 0 0 0 0 0 0 0 0 0 0 0 0 0 0 0 0 0 0 0 0 0 0 0 0 0 0 0 0 0 0 0             ",
"                    0 0 0 0 0 0 0 0 0 0 0 0 0 0 0 0 0 0 0 0 0 0 0 0 0 0 0 0 0 0 0 0 0 0 0 0 0 0 0 0 0 0 0 0 0 0 0 0             ",
"                    0 0 0 0 0 0 0 0 0 0 0 0 0 0 0 0 0 0 0 0 0 0 0 0 0 0 0 0 0 0 0 0 0 0 0 0 0 0 0 0 0 0 0 0 0 0 0 0             ",
"              0 0 0 0 0 0 0 0 0 0 0 0 0 0 0 0 0 0 0 0 0 0 0 0 0 0 0 0 0 0 0 0 0 0 0 0 0 0 0 0 0 0 0 0 0 0 0 0 0 0 0             ",
"              0 0 0 0 0 0 0 0 0 0 0 0 0 0 0 0 0 0 0 0 0 0 0 0 0 0 0 0 0 0 0 0 0 0 0 0 0 0 0 0 0 0 0 0 0 0 0 0 0 0 0             ",
"              0 0 0 0 0 0 0 0 0 0 0 0 0 0 0 0 0 0 0 0 0 0 0 0 0 0 0 0 0 0 0 0 0 0 0 0 0 0 0 0 0 0 0 0 0 0 0 0 0 0 0 0 0         ",
"              0 0 0 0 0 0 0 0 0 0 0 0 0 0 0 0 0 0 0 0 0 0 0 0 0 0 0 0 0 0 0 0 0 0 0 0 0 0 0 0 0 0 0 0 0 0 0 0 0 0 0 0 0         ",
"              0 0 0 0 0 0 0 0 0 0 0 0 0 0 0 0 0 0 0 0 0 0 0 0 0 0 0 0 0 0 0 0 0 0 0 0 0 0 0 0 0 0 0 0 0 0 0 0 0 0 0 0 0         ",
"              0 0 0 0 0 0 0 0 0 0 0 0 0 0 0 0 0 0 0 0 0 0 0 0 0 0 0 0 0 0 0 0 0 0 0 0 0 0 0 0 0 0 0 0 0 0 0 0 0 0 0 0 0         ",
"              0 0 0 0 0 0 0 0 0 0 0 0 0 0 0 0 0 0 0 0 0 0 0 0 0 0 0 0 0 0 0 0 0 0 0 0 0 0 0 0 0 0 0 0 0 0 0 0 0 0 0 0 0         ",
"              0 0 0 0 0 0 0 0 0 0 0 0 0 0 0 0 0 0 0 0 0 0 0 0 0 0 0 0 0 0 0 0 0 0 0 0 0 0 0 0 0 0 0 0 0 0 0 0 0 0 0 0 0         ",
"              0 0 0 0 0 0 0 0 0 0 0 0 0 0 0 0 0 0 0 0 0 0 0 0 0 0 0 0 0 0 0 0 0 0 0 0 0 0 0 0 0 0 0 0 0 0 0 0 0 0 0 0 0         ",
"              0 0 0 0 0 0 0 0 0 0 0 0 0 0 0 0 0 0 0 0 0 0 0 0 0 0 0 0 0 0 0 0 0 0 0 0 0 0 0 0 0 0 0 0 0 0 0 0 0 0 0 0 0         ",
"              0 0 0 0 0 0 0 0 0 0 0 0 0 0 0 0 0 0 0 0 0 0 0 0 0 0 0 0 0 0 0 0 0 0 0 0 0 0 0 0 0 0 0 0 0 0 0 0 0 0 0 0 0         ",
"              0 0 0 0 0 0 0 0 0 0 0 0 0 0 0 0 0 0 0 0 0 0 0 0 0 0 0 0 0 0 0 0 0 0 0 0 0 0 0 0 0 0 0 0 0 0 0 0 0 0 0 0 0         ",
"              0 0 0 0 0 0 0 0 0 0 0 0 0 0 0 0 0 0 0 0 0 0 0 0 0 u u u 7 0 0 0 0 0 0 0 0 0 0 0 0 0 0 0 0 0 0 0 0 0 0 0 0         ",
"              0 0 0 0 0 0 0 0 0 0 0 0 0 0 0 0 0 0 0 0 0 0 0 0 u 7 7 u u 0 0 0 0 0 0 0 0 0 0 0 0 0 0 0 0 0 0 0 0 0 0 0 0         ",
"                  0 0 0 0     0 0 0 0 0 0 0 0 0 0 0 0 0 0 0 0 7 u u 7 u 0 0 0 0 0 0 0 0 0 0 0 0 0 0 0 0     0 0 0 0             ",
"                    0 0       0 0 0 0 0 0 0 0 0 0 0 0 0 0 7 7 5 5 7 7 0 0 0 0 0 0 0 0 0 0 0 0 0 0 0 0 0       0 0 0             ",
"                    0 u       u 0 0 0 0 0 0 0 0 0 0 0 0 0 a.g.g.f.g.d.j u u 7 u u u u 0 0 0 0 0 0 0 0         u u               ",
"                              u 0 0                   0 u v.F.D.D.F.N.b u <                                                     ",
"                                0 0                 u u 0 s.x.z.z.x.g.h % u                                                     ",
"                                          0 u < % % O < % % $ $ $ $ % % < O < % %                                               ",
"                                        0 0 % ^ y.y.y.y.y.y.y.y.y.y.y.y.y.y.y.y.6.                                              ",
"                              % % % u u u % O e.cXcXcXcXcXcXcXcXcXcXcXcXcXcXcXcXL.. % < u u 1 O %                               ",
"                              6.w.6.J < L 9.e.J.cXkXcXcXkXcXcXcXcXcXcXcXvXvXcXVX$Xe.e.( % a *.e.9.                              ",
"                        < % a $XBX9X/ O ..tXkXkXkXBXcXBXBXkXkXkXBXkXkXkXkXBXBXcXkXkXBXi.O y $XBXqX/ O %                         ",
"                        &.4.6.U.#XT.W #  .OX@X@X+X+X+X+X+X+X+X+X+X+X+X+X+X+X+X+X+X+X+XW.' | I.#XR.r.4.2.                        ",
"                    u u L.cXyX2.u u 1 O ` ~.).).).).).).).).).).).).).).).).).).).).).)./.^.} 0 W <XcX*XH 7 0                   ",
"                    u < L.BXpX<.% s O.$.>.|.XXXX.X.X.X.XXXXX.X.X.X.X.X.X.X.X.X.X.X.X.X.XXX X{ 1 U 1XcX:XH u u                   ",
"                    % < U.VXsX<.< U ,XsXhXNXNXNXNXNXNXNXNXNXNXNXNXNXNXNXNXNXNXNXNXNXNXNXNXpX2.O U 3XBX>XH u u                   ",
"                    u < H.*X&XO.= I oXSXAXAXAXAXZXZXZXZXAXAXAXAXZXZXZXZXZXZXZXZXZXZXZXZXZXCX%.% L E.>XT.H u %                   ",
"                    7 u Z D D a < F !.].'.'.].].].].].].].'.'.'.'.'.].].].].].].'.'.].].].`.] 1 u D D Z 7 u u                   ",
"                    0 u b B B d < F Q.}.}.}.}.}.}.}.}.}.}.}.{.{.{.{.{.}.}.}.}.}.{.{.{.}.}.[.[ O u N V M u u u                   ",
"                    0 7 l.A.Z._ : U =XDXDXNX8X8XDXDXDXNX8X8XDXGX8X8XNXDXDXDX8XDX8X8XNXDXDXDX:.. z n.S.M.h 0 7                   ",
"                    0 7 k.Z.N.) 7 R 1XcXkXcXcXkXcXcXBXkXcXcXkXcXcXcXkXcXkXBXcXcXcXcXBXcXcXdX3.% z m.B.b.g 7 u                   ",
"                    0 0 j m n u 0 U 3XcXcXcXcXcXcXcXcXcXcXcXcXcXcXcXcXcXcXcXcXcXcXcXcXcXcXdX2.O u b m j u 0 0                   ",
"                    u 0 7 0 % u < U <XcXcXcXcXcXcXcXcXcXcXqX5X6X6X6X5X6X5XqXdXcXcXcXcXcXcXdX2.# u u u % 0 0 0                   ",
"                              u u U 4XcXcXcXcXcXcXcXcXcXcXp.^ / / ( / ( ^ t.hXcXcXcXcXcXcXhX4.O 0                               ",
"                              u 0 U 3XcXcXcXcXcXcXcXcXcXcXe.O u 1 1 u < O -.hXcXcXcXcXcXcXhX2.O 0                               ",
"                              0 0 U 5XcXcXcXcXcXcXcXcXcXcXe.% 0       u O 2.hXcXcXcXcXcXcXhX2.< 0                               ",
"                              0 < U >XyXrXrXyXyXtXrXrXyXrX8.% 0       u % *.qXyXtXyXtXtXyXqX2.% 0                               ",
"                              0 0 a X.O.O.O.@.@.O.O.O.O.O.L 0 0       7 0 D o.O.O.O.O.@.O.X.J < 0                               ",
"                              0 0 0 % % u % % % < 7 % % % 7 0 0       u u < % < % % u % % u < u 0                               ",
"                                          u u u u u u u u 0 0 0       7 7 u u u 0 0 u u                                         ",
"                                          u 7 7 0 0 7 u u u 0 0       u 0 0 % u 0 0 0                                           ",
"                                    0 0 u u u u 0 0 u u 7 u 0 0       u 0 0 u u 0 0 0 0 u 0 u 7 0                               ",
"                                    0 0 u u 7 u 0 u 7 u 0 0 0 0       0 0 0 0 0 0 0 0 0 0 0 0 0 0                               ",
"                                                                                                                                ",
"                                                                                                                                ",
"                                                                                                                                "
};
