/* XPM */
static char *_4ed323ae4d941a6ff2414f003a05e54hz5gX85d9X1b7mOP[] = {
/* columns rows colors chars-per-pixel */
"64 64 235 2 ",
"   c #030401",
".  c #0B0401",
"X  c #040B03",
"o  c #0C0B03",
"O  c #04020E",
"+  c #0B030A",
"@  c #0C0B0A",
"#  c #130502",
"$  c #1C0502",
"%  c #150A02",
"&  c #1C0B02",
"*  c #12040B",
"=  c #1D050A",
"-  c #150C0A",
";  c #1C0B0B",
":  c #0C1102",
">  c #121204",
",  c #1C1204",
"<  c #171009",
"1  c #1C120C",
"2  c #040B11",
"3  c #090714",
"4  c #130A12",
"5  c #1A0B11",
"6  c #150512",
"7  c #1A1314",
"8  c #230502",
"9  c #2A0503",
"0  c #230B04",
"q  c #2B0C03",
"w  c #24060B",
"e  c #2C050B",
"r  c #240C0B",
"t  c #2C0C0B",
"y  c #330603",
"u  c #3C0604",
"i  c #340D04",
"p  c #3C0C04",
"a  c #330609",
"s  c #3B0609",
"d  c #340B0C",
"f  c #3B0B0C",
"g  c #271103",
"h  c #2C1005",
"j  c #24120A",
"k  c #2C110C",
"l  c #331104",
"z  c #3A1205",
"x  c #34120D",
"c  c #3B120C",
"v  c #240C11",
"b  c #2D0E11",
"n  c #2A0610",
"m  c #3C0612",
"M  c #330D12",
"N  c #3C0D12",
"B  c #3C0C1A",
"V  c #340712",
"C  c #251413",
"Z  c #2D1512",
"A  c #2B1419",
"S  c #2C1915",
"D  c #341212",
"F  c #3B1213",
"G  c #341817",
"H  c #361419",
"J  c #3C131C",
"K  c #430C05",
"L  c #4B0D05",
"P  c #440C0B",
"I  c #4B0C0B",
"U  c #420707",
"Y  c #550E0C",
"T  c #5E0E0D",
"R  c #421005",
"E  c #4A1106",
"W  c #43120D",
"Q  c #4B130E",
"!  c #53130E",
"~  c #5D110D",
"^  c #5C190D",
"/  c #430D12",
"(  c #4D0E14",
")  c #480610",
"_  c #540E13",
"`  c #5A0C1C",
"'  c #590E15",
"]  c #431314",
"[  c #4C1413",
"{  c #4C1B13",
"}  c #4C1519",
"|  c #45191B",
" . c #4C1B1A",
".. c #43181B",
"X. c #531414",
"o. c #5C1515",
"O. c #541A14",
"+. c #5C1A15",
"@. c #54151B",
"#. c #5C151A",
"$. c #541B1A",
"%. c #5C1B1B",
"&. c #760E0D",
"*. c #6C120D",
"=. c #66160D",
"-. c #711A0F",
";. c #76150F",
":. c #730F1C",
">. c #641514",
",. c #6C1614",
"<. c #641B15",
"1. c #6B1A15",
"2. c #63151B",
"3. c #6C161B",
"4. c #641B1B",
"5. c #6C1C1B",
"6. c #741615",
"7. c #7B1613",
"8. c #731A15",
"9. c #7B1C16",
"0. c #73161A",
"q. c #7B161A",
"w. c #741B1B",
"e. c #7B1C1C",
"r. c #4A211F",
"t. c #5B201A",
"y. c #662117",
"u. c #6C2215",
"i. c #64211C",
"p. c #6C211C",
"a. c #742216",
"s. c #7B2215",
"d. c #74221B",
"f. c #7C221C",
"g. c #7A2A1E",
"h. c #742818",
"j. c #4D1C21",
"k. c #4C1721",
"l. c #5B1620",
"z. c #531B21",
"x. c #5B1C21",
"c. c #641521",
"v. c #6D1522",
"b. c #641C22",
"n. c #6C1B22",
"m. c #6D1A2A",
"M. c #741622",
"N. c #731C22",
"B. c #7C1D23",
"V. c #741D29",
"C. c #7D1E2A",
"Z. c #5A2224",
"A. c #632122",
"S. c #6B2321",
"D. c #742323",
"F. c #7C2224",
"G. c #752A24",
"H. c #74252A",
"J. c #7D232A",
"K. c #7C2A2B",
"L. c #792B29",
"P. c #7D2633",
"I. c #86190D",
"U. c #831516",
"Y. c #831C15",
"T. c #8B1B16",
"R. c #83151B",
"E. c #831D1B",
"W. c #8B1D1C",
"Q. c #8B141A",
"!. c #931C1C",
"~. c #931C1A",
"^. c #812116",
"/. c #892115",
"(. c #83221C",
"). c #8A221D",
"_. c #8A281F",
"`. c #912116",
"'. c #93211E",
"]. c #992319",
"[. c #841D24",
"{. c #8B1D23",
"}. c #841D2A",
"|. c #8C1D2A",
" X c #861624",
".X c #941D24",
"XX c #9B1C24",
"oX c #931D2A",
"OX c #9B1E2A",
"+X c #981523",
"@X c #921E32",
"#X c #881E35",
"$X c #A41E25",
"%X c #A31F2A",
"&X c #AC1B22",
"*X c #842323",
"=X c #8B2324",
"-X c #852925",
";X c #8A2924",
":X c #84242A",
">X c #8C232A",
",X c #842929",
"<X c #8C292B",
"1X c #932324",
"2X c #9B2325",
"3X c #932926",
"4X c #9C2925",
"5X c #93242A",
"6X c #9C252B",
"7X c #942A2B",
"8X c #9C2A2C",
"9X c #9D302D",
"0X c #842B32",
"qX c #882531",
"wX c #9E2632",
"eX c #9C2B32",
"rX c #952732",
"tX c #9F3034",
"yX c #A32425",
"uX c #A92425",
"iX c #A52925",
"pX c #A2242B",
"aX c #AA252D",
"sX c #A32A2C",
"dX c #AB2A2C",
"fX c #B12A2D",
"gX c #A32532",
"hX c #AA2533",
"jX c #A42C33",
"kX c #AA2C34",
"lX c #AA2538",
"zX c #B12C34",
"xX c #B82B34",
"cX c #A93133",
"vX c #A63035",
/* pixels */
"4 R K / c p ] F R f / # d I I x d c D l ] 6 d K p c P c s c P P v 0 L l ] N F c f } % r _ u ] P x P c g ) N . [ a W P D / c P x ",
"P iXsXrXpXyXgX$X2X8X7Xi *XpX8X2XdX2XaXyXpXD ;XdX6X9X4XpXsX4XsXkX} >.fX4XhXpXgX4X8XgXL w.kX3X8X5X2XuXiXtXkXN.K kX2XsX2X4XhX8XpX{.",
"D 2X8.4.U.e.N.e.1.q.:X# >X*Xp.q.w.8.[.1.B.$ >Xs.6.w.w.q.[.w.1.*XN P 7X<.4.w.w.9.1.[.p %.1X1.e.e.D.E.6.,.*XO.0 wX1.f.w.w.R.y.B.1.",
"P yXY.D.W.a.e.f.f.Y.>X8 OX=Xw.W.Y.8.w.(.{.0 oXW.E.f.a.E.R.9.a.2XF Y 4XE.f.*Xa.7.e.1XW 6.6Xa.W.q.8.f./.9.=Xo.K gXw.E.a.E.W.d.*Xe.",
"f *XN.J.e.J.C.E.B.n.C.0 3.D.D.[.*XJ.C. XN., V.*XF.B.H.J.[.J.D.>XD ( >X[.F. XJ.:XD.J.f o.:XS.[.N.:XB.F.F.:Xo.c J.J.B.D.F.F.H.C.3.",
"# , $ 8 0 1 + q 0 % r . - 0 8 = $ @ 8 8 % X e $ 8 $ j X 9 r $ 8 @ $ 8 8 % 8 % = 8 r o $ 0 $ r r - # $ $ 8 $ o 0 r 8 = $   t = $ ",
".X*X5X5X=X2.F 3X1X*X.XOX=XXX*X<X=Xt i.3X$X;XoX=X>X=X{.l  X*X>X<X,X=X.X.X=X5XQ ] pX=X{.5X5X1X{..Xy 4.7X*X{.OX<XoX(.W.5X4.P OX*X<X",
"/.g.{.8.2X3.k yX7.;Xf. Xg.W.f.E.=X8 {.-XQ.f.|.s.e.=X=X& 5X:XW.e.(.E.*Xf.d.7XL @.8Xa.{.[.(.W.g.3Xc 3.OX(.*XE.f.(.(.W.5X$.i lX(.9.",
"7.u.5.8.(.x.t sXa.1.w.q.e.7.1.w.;X. >X[.6.8.3.a.q.e.B.0 {.F.q.6.d.B.,.0.y.>XI | 2X1.w.e.8.7.a.).k 1.1Xn.N.7.8.5.6.8.e.O.p wX1.6.",
"5X=X[.>X'.b./ 4X1X*X>XoX*X.X-X>X*Xr {.=X!.;X@XW.>X=X-Xl oX,X=X=X{.{.{.1X,X5XY X.pX(.=X>X=X5X*XoXN 1.2X*X>X2X;X|.;X>X>X4.E gX*X;X",
"t f f F f w @ f i d H b Z / x d a   t F f 1 B f t d Z   d M t x D t N d q d # - f d S b N d a ] * 0 c t V N k m q d M = . N d k ",
"0 4.2.%.<.3.x.*.>.%.2.8 X.#.4.3.3.4.4.y.>.0 %.+.o.3.4.%.v.3.o.4.k i 5.o.<.3.4.4.4.2.q I 5.t.>.%.n.<.>.+.n.W q b.+.0.4.4.2.5.,.! ",
"Q vX2X-X2XyX7X2X2X7XOXi 6X;X2X6X2X%X5X_.6Xi >X8X5X6X5X6X2XpX1XaXQ ~ jX5X8X2X6X2X3XwXL q.kX;X6X5X6X2X1X2XkX1.p jX3XyX5X6XsX2XsX(.",
"d 2X7.3.e.8.3.a.6.d.B.% qXF.0.8.1.w.5.8.{.% [.).8.8.,.w.w.w.8.(.N [ 7X8.0.v.w.8.1.*Xi %.5X<.e.e.*.d.1.1.{.X.q wX4.8.1.8.q.>.e.4.",
"! yXY.F.=X^.9.=X/.=X>Xq {.1XW.E.F./.*X^.=XD .X~.E.*X(.).).f.(.1XP ~ uXY.=X*X=X(.{.=XE 1.pX/.f.Y.(.=X(.s.!.N.R aXE.(.*X(..Xf.;Xa.",
"; 5.O.z.4.4.l.2.$.o.z.. ] M.$.%.@.+.b.=.@.2 #.+.2.Z.X.o.4. .o.3.7 k w.X.%.z.#.o.$.c.t D v.4.$.%.%.#.l.t.2.J o 4.c.$.2.$.3.$.%.( ",
"q q d t i b * i t y a x s k 9 f i O t u q x r a a a M . C s d i a d t j q c # w K j t a q i y x = % f y q a F 0 a q x M X s q d ",
"pX6XeXsXpXn.[ dXeXwX6X8X6XeXeXjX3XM =XsXjX6XpXpX5XsXsXp oXgX8X8X4X6XsXsXpXvXO.X.fX;XeXsXeX8X6XjXP 5.kX4XsXpX8X%X6XsX8X2.d xXsX6X",
"5.9.q.5.*Xx.0 6X1.8.8.e.w.w.B.3.E.X :XE.0.8.{.<.w.e.J.: 5XJ.1.8.f.q.5.w.1.>Xi } 1X1.q.q.w.9.8.=Xk 4.=X,.w.B.n.e.S.6.{.Z.j hX,.w.",
"8.s.E.w.(.1.p dXe.E.9.Y.8.Y./.a.2X% >X`.q.q.E.h.E.q.-X& oX*Xq.(.a.9.e.W.E..XK @.4X8.W.E.7.E.8..Xi 8.6X9.e.E.w.9.d.9.!.%.i aX9.d.",
"@Xg.B.}.}.+.d >Xe.J.F.H.J.[.[.F.N.r n.E.P.#XB. X[.J.K.9 M.}.J.B.:X[.e.:XJ.:XF / =XD.}.J.F.F.D.|.d @.:XD.[.|.B.*X[.F.[.X.i 1X*X}.",
"= 0 % r t & . 0 & e r X r e 8 ; $ . r 9 r 6 , 9 9 & j # - a 0 0 $ w 0 > & r % = q 0 X # e & 0 r - o 0 $ e w . j w & 0 5 @ $ 0 w ",
"d 2X*XJ.W.=X6X>X;XOX*Xq  X=X=X3X3X>X1X/.:Xm a.3X>X*X X1X-X{.*X4Xc ! 2X;XXX*X>X2X=X>XX.1.OX*X=X=X=X1X5X;X>X1.p >X-X*X).OX|._.1Xd.",
"d uX(.[.XXh.F.E.e..X>X% 5X<X XE.9.;XoX^.>Xw ;X1XE.-XW.oX=X).f.2X..I aX9.+XL.f.W.{.>Xp 4.wX(.=XB.f.{.E.9.7X%.q kX=XW.E.>X[.G.!.w.",
"D $X-.p.E.-.6.1.1.R.B.: |.H.e.8.w.8.w.I.L.+ =X X8.1.q.8.w.7.1.*XF Q 6X,.,.S.1.q.1.>Xi <.5X1.7.w.7.5.w.-.(.$.q 6X3.1.9.q.w.8.7.i.",
"] 4X).:XoX;X6X>X-X2X=Xq oX>X1X=X.X{.>X/.>XB ;X8X=X,X5X=X>XoX;X8XK +.8X=X5X<X>X.X=X7X! w.eX,X=X-X1X>X5X).1Xb.W jX>X;X=X{.>X=X3X:X",
". x x V a D M d t s N   V N d d F v M i d O & f a t H v D N d d o ; d q a M b D f M . & f d k d S M N 9 N v   f M d d M S M f w ",
"#.^ >.c.o.] 8 #.O.o.4.X.%.3.>.O.o.% [ ^ 2.c.O.1.2.#.o.9 X.>.o.<.4.%.=.+.>.4.q d ,.+.@.%.>.>.$.3.& P 4.o.4.2.X.w.#.o.+./ 8 >.>.%.",
"6X1X1X5X6Xw.c kX3X1X3X1X=X2X1X3X1X0 >X4X5XsX1X'.2X3X=XU <X5X5X1X2XOX5X7X2XeXX.X.dX;X6X3X1X1X=XsXc 8.jX=X=XpX5X2X2X1X5XN.K kX{.8X",
"5.w.5.5.{.%.q sXw.8.w.q.w.0.e.d.=Xo F./.5.0.8.<.0.w.D.8 0X*X8.,.w.8.5.1.0.|.a @.1X-.0.q.8.7.8.{.d 4.5X8.5.7.w.>.1.8.F.%.q tX6.1.",
"(.(.F.E..X5.I iXE.E.W.=XW.(.(.E.~.q 1X~.E.Y.=X;X(.E.=Xq {..X/.(.a.W.f.*XW.2XE 2.iXe.{.W.(.).=X1Xp -.iXE.F.T._.,X=XY.W.3.i aX/.E.",
"3.%.#.b.4.G = <.%.#.%.%.3.$.%.2.O.2 #.o.%.4.l.2.%.o.c.: ` b.%.$.O.n.X.%.<.4., V 5.O.Z.c.$.O.4.b.5 c 5.#.Z.>.4.#.%.+.x.k.@ 0.4.%.",
"- z y B f q d d k i s X t f a t q N r g / # Z p d k a x d k f f r 8 P 0 x a d d t / - ; f t k / d k i d V M $ d a x d d d t k M ",
") 4X9XeXaX8XeX%XyXgXwXp =XpXsXsXdX6XpXyX%Xi :XiXyX8XyXyXuX4XyXaXW o.kX2XdXpXwX4X8XgXY 0.zX4X8X2X+XkXyX8XvXw.U jX6XhXpX6XkXgXpX.X",
"D 4X8.4.U.w.p.e.8.e.J.$ qX=XF.8.7.S.{.p.e.& @Xp.w.F.w.e.B.w.1.>XF Q eX1.8.f.B.f.8.=Xi %.oX=.(.e.D.{.6.1.>XO.q wXy.E.w.8.e.5.B.4.",
"P yXE.e.T.8.w.s.9.8.[.$ .XW.7.w.Y.5.8.(.1X0 OX=Xe.e.5.[.R.e.d.<X..! pX9.U.f.e.8.9.1Xz 1.6X9.W.8.1.Y.^.f.W.+.z pXa.Y.d.q.B.8.;Xa.",
"a *XJ.B.{.:XqXE.=XJ.K.g M.:X:X}.*X}.}.|.B.1 V.{.*X9.K.*X{.*XF.{.V } 5XD.J.:X:X}.[.J.F #.5XJ.*XV.|.F.*XB.>X#.f K.[.[.F.[.>XJ.}.0.",
"o g 8 $ 8 ; + 0 8 # ; X $ 0 % 8 - % r 8 $ X r 8 0 $ 1 X 8 = 0 8 * % 8 % : r = w 8 & o # w 0 $ t r o 0 $ 0 = # & q $ r & # ; $ 8 ",
"{.(..X>X(.2.f =X-XF.|..X-XW.F.<X{.0 4.).XX:X{.~.J.[.B.h  XK.|.B.<X=XW.~.F.oXP W 1X*X*X{.=X=Xf.{.p X.rX=Xq.{.5X Xe.e.>X$.K {.*X*X",
"E.*X[.d.1XN.M uXY.<X X+XG.=XE.{.:X0 oX;XU.K..Xf.E.1X{.0 oX<X.X(.F.W.(.!.D.gXP  .4X(.Q.=X(.E.f.2Xc 4.6XW.,X*XE.:X*X{.pX{ p lX>XF.",
"7.y.1.1.(.x.q pX-.u.e.w.7.8.1.8.5X# |.d.U.9.3.u.q.e.B., {.G.9.0.7.e.4.q.y.oXW ] 2X1.w.e.1.7.a.{.k 1.1X<.5.U.f.4.6.w.[.$.i gX<.7.",
"1X;X5X;X.X3.W gX=X*X>X>X*X.X=X5Xe.t ,X-XW.*X|.;X*X=X*Xl |.:X[.=X{.*X*X=X-X5XX.O.sX*X*X>X=X1X*X5Xf ,.4X,X=X!.=X|.;X=X*X4.L wXF.;X",
"k N i x / v % f f a D M Z / k f x + e / x S / s d f M . m N V N G t ] f d N # r f F S M f d f ] - 8 f d F F k m x P V r # / f x ",
"0 N.4.<.3.b.5.1.5.4.%.9 O.3.4.5.6.4.5.w.>.0 c.1.3.1.5.<.0.w.1.w.l s w.1.w.y.5.0.5.5.i _ N.i.3.2.b.5.1.4.3.] h n.+.0.p.n.3.5.6.O.",
"R kX3X=X2X2X2X2X4X3X5Xu 5X6X5X2X'.8X6X3X1Xg 5X8X=X3X;X5X=X2X=XsX] O.kX=X2X;X3X6X;XaXL q.zX;X4X1XXX6X'.4XsX5.K lX;X2X;X2X6X=X4XF.",
"d 1X7.1.B.8.6.1.*.w.[.# ,XF.6.,.p.1.,.1.=X-  X(.0.8.1.q.6.w.8.*X] Q 7X8.0.4.w.8.1.:Xi +.1X~ w.e.w.w.>.1.5X%.8 2X8.8.1.1.q.1.e.y.",
"! 2X'.-X{.9.(.>X_.*X>Xq =X1XW.*XE./.*X/.OXd .X].W.-XE.1X1X=X{.2X( T pXW.5X|.*XE.*X5XE 1.sX(.*XE.e.*X_.s.!.2.p kX{.W.W.).+X_.2Xe.",
"; #.X. .@.%.%.` $.' k.X ( 2.} $.z.#. .! @.3 | X.@.r.[ X.O...} %.1 r %.Q @.l.} +.} #.= x c.X.{ #.%.#.#.[ 2.H o #.@. .%.| o.| $.] ",
"d t d f p C + K d a f c P x i f c O f z d R Z f i d / . r W P i i / d Z u W # w K a f f f i c / = & ] u f P J a c i x M X P i F ",
"sXpX6XsXyXN.( cXsX4X6X6X6X8XeXsX2Xk W.dXjXpXwXuX8XsXwXP 5XpX8X8X8X%X6XeXyXkXX.o.fX3X6XkXsX6X2XgXP 5.vX4X8X6X6XpX5XsXeX:.p xX4X6X",
"e.a.5.1.=X%.r 6X1.8.N.q.e.w.B.,.e.o >X9.4.q.{.<.6.q.J.% >X X1.q.f.q.5.i.1.,Xi @.4X<.0.B.1.7.8.*Xk 4.=X,.p.e.5.e.w.;.{.x.j pX&.D.",
"w.s.f.e.).1.p hXe.(.E.9.d.U.(.e..X% >X~.e.q.9.h.E.E.,X& 5X=Xe.9.a.7.a.(.9.OXc @.sXu.9.{.8.E.(.5Xa 1.6X9.f.e.p.f.f.9..X+.q aXY.F.",
"}.B.E.C.B.#.N }.N.B.B.D.J. XC.d.w.r n.9.:X#Xe.E.B.b.H.t M.V.D.H.:X[.w.[.C.}./ / oXD.H.C.F.B.B.B.d o.:XD.B.|.N.[.V.G.B.} d :XF.n.",
"* 0 8 r r , # $ $ 8 r X t r 8 & % . t & r 4 0 0 9 & t . $ q 9 8 $ - 9 $ & r % $ 9 r . # t 0 $ 0 ; # 0 & e e . r e $ 8 r - 0 q $ ",
"F 4X;X:X{._.8X5X<X2X>Xi {.=X{.7X8X5X>X].5Xb a.5X2X;X2XOX;X2X2XaXc O.pX3XOX5X5X1X=X6XQ 1.6X*X=X5X>X6X8X;X5X1.p 7X5X1X1XOXoX=X6X[.",
"D &XY.J..X9.W.f.f.W.5X% OX,X=XE.9.W.*XT.:Xw 1X.X8.-XE..Xg.E.h.1X[ E pX8.E.G.E.T.f.OXp 4.gXf.*X{.e.(.Y.q.5X%.i hXF.e.f.=Xf.g.W.5.",
"N yX7.V.E.-.U.1.1.Q.F.% >XB.q.8.s.8.3.I.K.$ 1XE.6.5.w.7.e.q.1.(.F ! 6X,.0.S.5.U.1.=Xz 2.7X1.q.e.9.q.1.6..X@.q hX1.e.f.e.q.1.E.p.",
"F 4X(.J.=X;X5X=X-XoX,Xh |.>X=X;XW.=X0X/.*XN -XrX=X,X5X=X=X1X=X8XP +.8X-X5X-XF.!.=X5XQ 1.eX-X-X*X{.>X7X;X3Xb.c 8X:X).W.{.>X*X1XF.",
"X i q b y j = d 0 a e   d d e j D v A h V + & t y e d r t M t a . - a g a d j D a t . # f a j a S t d 8 t ;   y a h f t C d a 8 ",
"b.=.1.n.,.[ r 1.+.4.5.t.b.n.3.+.2.$ X.^ 3.m.o.1.4.%.%.9 O.4.<.4.n.5.>.<.3.n.l d 6.%.b.4.2.>.<.N.0 c N.<.i.n.#.w.2.O.<.] q 1.+.4.",
"6X'..X5X6X0.P kX1X=X6X1X2X1XOX=X5Xt 5X4XOXgX2X4X5X7X|.u <X5X5X5XpX.X5X3X2XeXY } fX_.6X8X2XyX;XaXP 1.kXOX=XpX6X2X5X;X6Xn.K kX=XeX",
"8.p.5.w.*X%.t 8Xw.1.e.w.e.1.e.d.=X. F./.4.,.1.<.6.w.F.8 0X:X0.6.p.5.5.5.1.>Xc j.1X<.6.8.1.8.1.F.D %.=X3.i.q.w.4.0.6.B.%.0 eX*.0.",
"e.(.F.E.!.n.I ].9.E.(.E.E.e.(.Y.'.q W.`.F.(.*X_.).W.{.i {..XE./.9.(.f.(.Y.1XL T yXf.W.{.f./.).2Xs *.yX(.*XU.(.*X=XT.=X3.p aXW.W.",
"1.3.b.4.5...v d.4.n.4.3.4.b.A.n.%.4 5.5.b.b.c.0.i.2.b.> #.n.b.%.1.N.2.3.4.D.k N N.%.4.n.x.b.n.b.C Q w.#.b.1.i.v.%.1.S.k.< 0.5.%."
};
